<svg width="41" height="40" viewBox="0 0 41 40" fill="none" xmlns="http://www.w3.org/2000/svg">
<path d="M14.6994 17.3703C14.6994 18.1081 14.1011 18.7062 13.3633 18.7062C12.6255 18.7062 12.0274 18.1081 12.0274 17.3703C12.0274 16.6323 12.6255 16.0342 13.3633 16.0342C14.1011 16.0342 14.6994 16.6323 14.6994 17.3703Z" fill="#DA5E19"/>
<path d="M20.7113 23.3828C20.7113 24.1205 20.1131 24.7186 19.3754 24.7186C18.6376 24.7186 18.0392 24.1205 18.0392 23.3828C18.0392 22.645 18.6376 22.0469 19.3754 22.0469C20.1131 22.0469 20.7113 22.645 20.7113 23.3828Z" fill="#DA5E19"/>
<path d="M24.0514 15.3663C24.0514 16.4732 23.1541 17.3705 22.0474 17.3705C20.9405 17.3705 20.0432 16.4732 20.0432 15.3663C20.0432 14.2596 20.9405 13.3623 22.0474 13.3623C23.1541 13.3623 24.0514 14.2596 24.0514 15.3663Z" fill="#DA5E19"/>
<path d="M37.4112 17.3708C36.1931 17.3698 35.1289 18.1947 34.8261 19.3747H32.7014C32.5509 16.299 31.337 13.3712 29.267 11.0914L30.758 9.60849C31.3071 9.96485 31.9474 10.1551 32.6017 10.1563C34.4442 10.1511 35.9334 8.65326 35.9283 6.81105C35.9231 4.96859 34.4255 3.47931 32.5831 3.48446C30.7406 3.48937 29.2513 4.98725 29.2565 6.8297C29.2582 7.48059 29.4506 8.11699 29.8094 8.65989L28.3265 10.1509C26.047 8.08092 23.1189 6.86701 20.0434 6.7168V5.25992C21.4721 4.89079 22.3314 3.43341 21.9625 2.00475C21.5936 0.575849 20.1362 -0.283409 18.7073 0.0854756C17.2784 0.45436 16.4191 1.91198 16.7883 3.34064C17.0313 4.28187 17.7661 5.01694 18.7073 5.25992V6.7168C15.6318 6.86701 12.7038 8.08092 10.4242 10.1509L8.94107 8.65989C9.96305 7.1198 9.54312 5.04296 8.00279 4.02098C6.4627 2.999 4.38586 3.41918 3.36388 4.95927C2.34214 6.49935 2.76208 8.57644 4.30216 9.59818C4.84972 9.96142 5.49202 10.1556 6.14904 10.1563C6.80336 10.1551 7.44369 9.96485 7.99248 9.60849L9.48348 11.0914C7.41375 13.3712 6.19984 16.299 6.04939 19.3747H4.57926C4.21013 18.1373 2.90811 17.4331 1.67064 17.8022C0.433172 18.1711 -0.270973 19.4734 0.0981569 20.7106C0.467041 21.9481 1.7693 22.6522 3.00653 22.2833C3.76246 22.0578 4.3537 21.4665 4.57926 20.7106H6.04866C6.19911 23.7864 7.41301 26.7141 9.48299 28.9939L7.99273 30.4768C6.45436 29.4588 4.38193 29.8807 3.36412 31.4191C2.48695 32.7446 2.66538 34.5046 3.79093 35.6272C5.08755 36.9312 7.19605 36.9373 8.50028 35.6405C8.5047 35.6361 8.50911 35.6316 8.51353 35.6272C9.63467 34.5054 9.81334 32.75 8.94107 31.4254L10.4242 29.9344C12.7038 32.0044 15.6318 33.2183 18.7073 33.3685V34.8254C17.2784 35.1945 16.4191 36.6519 16.7883 38.0806C17.1572 39.5095 18.6145 40.3687 20.0434 39.9998C21.4721 39.631 22.3314 38.1736 21.9625 36.7447C21.7195 35.8035 20.9844 35.0684 20.0434 34.8254V33.3685C23.1189 33.2183 26.047 32.0044 28.3265 29.9344L29.8094 31.4254C28.7943 32.969 29.2226 35.0433 30.7661 36.0587C31.3112 36.4173 31.9494 36.6085 32.6017 36.6092C33.4875 36.6109 34.3369 36.257 34.9598 35.6272C36.2658 34.3245 36.2687 32.2098 34.9662 30.9036C33.8436 29.7783 32.0836 29.5997 30.758 30.4768L29.267 28.9939C31.337 26.7141 32.5509 23.7864 32.7014 20.7109H34.8261C35.1952 22.1395 36.6526 22.9988 38.0812 22.6299C39.5101 22.261 40.3694 20.8036 40.0005 19.3747C39.6957 18.1942 38.6305 17.3698 37.4112 17.3708ZM22.0474 12.0267C23.8918 12.0267 25.3872 13.5221 25.3872 15.3666C25.3872 17.2112 23.8918 18.7067 22.0474 18.7067C20.2027 18.7067 18.7073 17.2112 18.7073 15.3666C18.7095 13.5229 20.2035 12.0289 22.0474 12.0267ZM12.6419 23.6364C12.6095 23.7181 12.5619 23.793 12.5016 23.8568C12.3734 23.9788 12.2041 24.048 12.0274 24.0507C11.94 24.0495 11.8539 24.0313 11.7734 23.9972C11.6926 23.9633 11.618 23.9159 11.553 23.8568C11.4926 23.793 11.445 23.7181 11.4128 23.6364C11.3785 23.5561 11.3603 23.4698 11.3593 23.3826C11.3618 23.2057 11.431 23.0363 11.553 22.9082C11.618 22.8493 11.6926 22.8019 11.7734 22.7681C12.0225 22.6672 12.3077 22.7222 12.5016 22.9082C12.6235 23.0363 12.6927 23.2057 12.6952 23.3826C12.6942 23.47 12.6761 23.5561 12.6419 23.6364ZM15.9818 27.6446C15.9496 27.7263 15.902 27.8011 15.8416 27.865C15.7135 27.9869 15.5442 28.0561 15.3672 28.0586C15.2801 28.0576 15.1937 28.0395 15.1134 28.0051C15.0325 27.9712 14.9581 27.9239 14.893 27.865C14.8327 27.8009 14.7851 27.7263 14.7527 27.6446C14.7185 27.5641 14.7004 27.4779 14.6994 27.3905C14.7019 27.2138 14.7711 27.0445 14.893 26.9164C14.9578 26.8575 15.0325 26.8101 15.1134 26.776C15.3626 26.6753 15.6478 26.7301 15.8414 26.9164C15.9634 27.0445 16.0326 27.2138 16.0353 27.3905C16.0343 27.4779 16.0161 27.5643 15.9818 27.6446ZM13.3633 20.0428C11.8875 20.0428 10.6913 18.8463 10.6913 17.3708C10.6913 15.895 11.8877 14.6987 13.3633 14.6987C14.8391 14.6987 16.0353 15.895 16.0353 17.3708C16.0353 18.8463 14.8391 20.0428 13.3633 20.0428ZM16.7034 23.3826C16.7034 21.9068 17.8996 20.7106 19.3754 20.7106C20.8509 20.7106 22.0471 21.9071 22.0471 23.3826C22.0471 24.8584 20.8509 26.0546 19.3754 26.0546C17.8996 26.0546 16.7034 24.8584 16.7034 23.3826ZM19.3754 30.7306C19.0065 30.7306 18.7073 30.4317 18.7073 30.0625C18.7073 29.6937 19.0065 29.3947 19.3754 29.3947C24.538 29.3891 28.7217 25.2052 28.7273 20.0425C28.7273 19.6737 29.0263 19.3747 29.3954 19.3747C29.7643 19.3747 30.0634 19.6737 30.0634 20.0425C30.0563 25.9425 25.2753 30.7237 19.3754 30.7306Z" fill="#DA5E19"/>
</svg>
