<svg width="55" height="40" viewBox="0 0 55 40" fill="none" xmlns="http://www.w3.org/2000/svg">
<path fill-rule="evenodd" clip-rule="evenodd" d="M35.3555 12.7637V15.4604L38.3016 18.2829V12.7637H35.3555Z" fill="#DA5E19"/>
<path fill-rule="evenodd" clip-rule="evenodd" d="M27.2239 10.915C27.3221 10.8168 13.9081 23.674 13.9081 23.674C13.7515 23.8276 13.7055 24.0618 13.7922 24.2633C13.8487 24.4328 14.0064 24.5479 14.185 24.5501H40.8148C40.9934 24.5479 41.1511 24.4328 41.2076 24.2633C41.2943 24.0618 41.2483 23.8277 41.0917 23.674C41.0917 23.674 28.2276 11.3638 27.7739 10.914C27.6208 10.7646 27.3765 10.765 27.2239 10.915Z" fill="#DA5E19"/>
<path fill-rule="evenodd" clip-rule="evenodd" d="M21.6064 1.96094V4.66454L24.5526 7.48898V1.96094H21.6064Z" fill="#DA5E19"/>
<path fill-rule="evenodd" clip-rule="evenodd" d="M52.0505 28.4793V15.7124H40.2657V20.168L42.4489 22.2598C43.1849 22.9667 43.4143 24.0516 43.0274 24.9958C42.6784 25.9138 41.7967 26.5191 40.8147 26.5151H40.2657V29.4614H51.0685C51.6109 29.4614 52.0505 29.0217 52.0505 28.4793Z" fill="#DA5E19"/>
<path fill-rule="evenodd" clip-rule="evenodd" d="M3.92924 29.4614H14.7319V26.5151H14.183C13.201 26.5191 12.3193 25.9137 11.9703 24.9958C11.5834 24.0516 11.8128 22.9667 12.5488 22.2598L19.382 15.7124H2.94727V28.4793C2.94727 29.0217 3.38691 29.4614 3.92924 29.4614Z" fill="#DA5E19"/>
<path fill-rule="evenodd" clip-rule="evenodd" d="M32.4092 34.3721V40.2645H37.3195C37.8618 40.2645 38.3016 39.8248 38.3016 39.2824V26.5156H16.6962V39.2825C16.6962 39.8248 17.1358 40.2646 17.6782 40.2646H22.5886V34.3722C22.5886 31.6603 24.787 29.4619 27.4989 29.4619C30.2107 29.4619 32.4092 31.6602 32.4092 34.3721Z" fill="#DA5E19"/>
<path fill-rule="evenodd" clip-rule="evenodd" d="M30.4451 34.372C30.4451 32.7449 29.1261 31.4258 27.4989 31.4258C25.8718 31.4258 24.5526 32.7448 24.5526 34.372V40.2644H30.445V34.372H30.4451Z" fill="#DA5E19"/>
<path fill-rule="evenodd" clip-rule="evenodd" d="M52.3511 10.4921L52.3314 10.4734L47.4408 5.78789L47.4211 5.76823L41.5209 0.116447C41.4497 0.0426536 41.3515 0.000976562 41.2488 0.000976562C41.1462 0.000976562 41.048 0.0426536 40.9767 0.116447L30.1603 10.4812L33.3913 13.5776V12.7664C33.3913 11.6817 34.2707 10.8023 35.3554 10.8023H38.3017C39.3865 10.8023 40.2659 11.6817 40.2659 12.7664V13.7485H54.5648C54.7457 13.7455 54.9041 13.6267 54.9576 13.4539C55.0429 13.2564 54.9975 13.0268 54.8436 12.8764L52.3511 10.4921Z" fill="#DA5E19"/>
<path fill-rule="evenodd" clip-rule="evenodd" d="M52.0505 1.96094H49.1044V4.66261L52.0505 7.48501V1.96094Z" fill="#DA5E19"/>
<path fill-rule="evenodd" clip-rule="evenodd" d="M13.4789 0.1144L0.160039 12.8734C0.00364445 13.0238 -0.0432953 13.2554 0.042206 13.4549C0.095698 13.6277 0.254133 13.7465 0.435018 13.7495H21.4316L24.8384 10.4851L14.023 0.116442C13.952 0.0423261 13.8539 0.000327408 13.7513 5.16674e-06C13.6487 -0.000531902 13.5503 0.0408218 13.4789 0.1144Z" fill="#DA5E19"/>
</svg>
