<svg width="44" height="40" viewBox="0 0 44 40" fill="none" xmlns="http://www.w3.org/2000/svg">
<path d="M5.07119 0H2.53559C1.13747 0 0 1.13747 0 2.53559V17.0264C0 18.4246 1.13747 19.562 2.53559 19.562H5.07119C6.46932 19.562 7.60678 18.4246 7.60678 17.0264V2.53559C7.60678 1.13747 6.46932 0 5.07119 0Z" fill="#DA5E19"/>
<path d="M40.7385 0H38.203C36.8048 0 35.6674 1.13747 35.6674 2.53559V17.0264C35.6674 18.4246 36.8048 19.562 38.203 19.562H40.7385C42.1367 19.562 43.2741 18.4246 43.2741 17.0264V2.53559C43.2741 1.13747 42.1367 0 40.7385 0Z" fill="#DA5E19"/>
<path d="M10.0555 17.9561H19.5396C19.5607 17.8922 19.5856 17.8289 19.6177 17.7672L21.4683 14.2037L18.63 10.5602C18.2731 10.1021 18.2731 9.46005 18.63 9.00195L21.4683 5.35847L19.6177 1.79503C19.5857 1.73333 19.5607 1.66994 19.5396 1.60596H10.0555C10.1117 1.90761 10.1424 2.21805 10.1424 2.53568V17.0265C10.1424 17.3441 10.1117 17.6545 10.0555 17.9561Z" fill="#DA5E19"/>
<path d="M33.2187 1.60596H22.3765L24.0932 4.9117C24.3217 5.35154 24.2728 5.8841 23.9682 6.27509L21.2371 9.78105L23.9682 13.2871C24.2728 13.6781 24.3217 14.2107 24.0932 14.6505L22.3766 17.9561H33.2188C33.1626 17.6544 33.1319 17.3441 33.1319 17.0263V2.53568C33.1318 2.21797 33.1626 1.90761 33.2187 1.60596Z" fill="#DA5E19"/>
<path d="M23.7358 23.0253C22.7311 21.7363 22.2799 21.3833 21.637 21.3833C20.9942 21.3833 20.543 21.7363 19.5383 23.0253C18.9015 23.8424 18.1922 24.8647 17.5411 25.9038C16.2479 27.9677 14.7064 30.848 14.7064 32.8483C14.7064 36.6699 17.8155 39.779 21.637 39.779C25.4586 39.779 28.5677 36.6699 28.5677 32.8483C28.5677 30.848 27.0262 27.9677 25.733 25.9038C25.0819 24.8647 24.3726 23.8424 23.7358 23.0253Z" fill="#DA5E19"/>
</svg>
