<svg width="40" height="40" viewBox="0 0 40 40" fill="none" xmlns="http://www.w3.org/2000/svg">
<path d="M16.7969 10.938C17.4441 10.938 17.9687 10.4133 17.9687 9.7661C17.9687 9.1189 17.4441 8.59424 16.7969 8.59424C16.1497 8.59424 15.625 9.1189 15.625 9.7661C15.625 10.4133 16.1497 10.938 16.7969 10.938Z" fill="#DA5E19"/>
<path d="M33.1535 12.7567L17.5288 0.256813C17.1007 -0.0856044 16.4926 -0.0856044 16.0647 0.256813L0.439849 12.7567C-0.0655351 13.161 -0.147487 13.8984 0.256883 14.4038C0.661253 14.9091 1.39859 14.9912 1.90397 14.5867L3.90621 12.985V28.1247H2.73435C2.08717 28.1247 1.56249 28.6494 1.56249 29.2965C1.56249 29.9437 2.08717 30.4684 2.73435 30.4684H11.7186V18.3592C11.7186 17.712 12.2433 17.1873 12.8905 17.1873H20.7029C21.3501 17.1873 21.8747 17.712 21.8747 18.3592V30.4684H22.8644C23.4017 24.6216 28.0107 19.616 29.6872 17.9738V12.9849L31.6895 14.5868C31.9056 14.7597 32.164 14.8437 32.4207 14.8437C32.7645 14.8437 33.1052 14.6931 33.3366 14.4038C33.7409 13.8984 33.659 13.161 33.1535 12.7567ZM16.7968 13.2811C14.8583 13.2811 13.2812 11.704 13.2812 9.76553C13.2812 7.82703 14.8583 6.24994 16.7968 6.24994C18.7353 6.24994 20.3123 7.82703 20.3123 9.76553C20.3123 11.704 18.7353 13.2811 16.7968 13.2811Z" fill="#DA5E19"/>
<path d="M32.5779 31.2168C31.7001 32.324 30.6248 34.0504 30.6248 35.6245C30.6248 36.9913 31.2637 37.6557 32.5779 37.6557C33.8921 37.6557 34.531 36.9913 34.531 35.6245C34.531 34.0504 33.4557 32.3239 32.5779 31.2168Z" fill="#DA5E19"/>
<path d="M35.9575 25.2252C34.5545 23.9379 33.7497 22.0619 33.7497 20.0782C33.7497 19.6152 33.4771 19.1956 33.0541 19.0074C32.6312 18.8192 32.137 18.8978 31.793 19.2079C31.5221 19.4523 25.1561 25.2656 25.1561 31.5757C25.1561 36.5357 28.208 39.9998 32.5779 39.9998C29.9676 39.9998 28.281 38.2825 28.281 35.6249C28.281 32.043 31.6183 28.7519 31.7603 28.6136C32.2153 28.1704 32.9403 28.1704 33.3954 28.6136C33.5374 28.7519 36.8747 32.043 36.8747 35.6249C36.8747 38.2826 35.1881 39.9998 32.5779 39.9998C34.8179 39.9998 36.7155 39.2273 38.0654 37.7658C39.3127 36.4153 39.9996 34.5311 39.9996 32.4602C39.9996 29.5456 37.8015 26.917 35.9575 25.2252Z" fill="#DA5E19"/>
</svg>
