<svg width="52" height="42" viewBox="0 0 52 42" fill="none" xmlns="http://www.w3.org/2000/svg">
<path d="M42.7421 26.7793H11.4857V29.7821H42.7421C43.8861 29.7821 44.8168 30.7128 44.8168 31.8568C44.8168 33.0009 43.8862 33.9316 42.7421 33.9316H40.0123V36.9344H42.7421C45.5418 36.9344 47.8195 34.6567 47.8195 31.8569C47.8195 29.057 45.5418 26.7793 42.7421 26.7793Z" fill="#DA5E19"/>
<path d="M32.2936 32.8584H8.54956V35.8612H32.2936C33.1583 35.8612 33.8617 36.5646 33.8617 37.4293C33.8617 38.294 33.1583 38.9975 32.2936 38.9975V42.0004C34.814 42.0004 36.8644 39.9498 36.8644 37.4294C36.8645 34.9088 34.814 32.8584 32.2936 32.8584Z" fill="#DA5E19"/>
<path d="M4.81287 26.7793H8.54962V29.7821H4.81287V26.7793Z" fill="#DA5E19"/>
<path d="M46.6517 14.5625V17.5653C47.5164 17.5653 48.2199 18.2688 48.2199 19.1335C48.2199 19.9982 47.5164 20.7017 46.6517 20.7017H40.4579C39.5529 21.9863 38.3243 23.027 36.8916 23.7046H46.6517C49.1721 23.7046 51.2227 21.654 51.2227 19.1336C51.2227 16.6132 49.1721 14.5625 46.6517 14.5625Z" fill="#DA5E19"/>
<path d="M33.0141 21.5699C36.3761 21.5699 39.1114 18.8347 39.1114 15.4726C39.1114 12.1105 36.3762 9.37526 33.0141 9.37526C32.3591 9.37526 31.7113 9.4802 31.0887 9.6874L29.1936 10.318L29.1145 8.32239C28.9294 3.65562 25.1231 0 20.4492 0C17.5372 0 14.8722 1.44674 13.2775 3.79268C15.7663 4.93219 17.471 7.45341 17.471 10.3065H14.4682C14.4682 8.23645 12.9247 6.46607 10.8779 6.18834L10.878 6.18764L10.8678 6.18614C10.6673 6.15753 10.4677 6.14302 10.2748 6.14302C8.00065 6.14302 6.14873 7.98554 6.13342 10.2561L6.13352 11.7337L4.69218 11.7913C2.06101 11.8967 0 14.0431 0 16.6779C0 19.3753 2.19457 21.5699 4.89197 21.5699H33.0141Z" fill="#DA5E19"/>
</svg>
