<svg width="55" height="42" viewBox="0 0 55 42" fill="none" xmlns="http://www.w3.org/2000/svg">
<path d="M6.85174 11.556C7.56795 10.8397 8.02155 9.83705 8.02155 8.71499C8.02155 8.30913 7.90218 7.85553 7.7112 7.37806C7.49633 6.87671 7.20985 6.37537 6.87562 5.85015C6.87562 5.82627 6.85174 5.82627 6.85174 5.8024C6.15941 4.75196 5.25221 3.72539 4.48825 2.84206L4.01078 2.29297L3.5333 2.84206C2.05314 4.56097 0 6.92446 0 8.71499C0 9.81318 0.4536 10.8159 1.16981 11.556C1.88602 12.2722 2.88871 12.7258 4.01078 12.7258C5.10897 12.7258 6.11166 12.2722 6.85174 11.556Z" fill="#DA5E19"/>
<path d="M17.5709 0.143242L17.4516 0L17.3322 0.143242C16.4489 1.16981 15.2313 2.57836 15.2313 3.58105C15.2313 4.20177 15.4701 4.75086 15.8759 5.15671C16.2818 5.56257 16.8309 5.8013 17.4516 5.8013C18.0723 5.8013 18.6214 5.56257 19.0272 5.15671C19.4331 4.75086 19.6718 4.20177 19.6718 3.58105C19.6718 2.57836 18.4543 1.16981 17.5709 0.143242Z" fill="#DA5E19"/>
<path d="M9.90769 3.46191C9.54959 3.89164 9.14374 4.34524 8.73788 4.84659L8.11717 5.5628C8.40365 6.0164 8.64239 6.47 8.83338 6.9236C9.09599 7.54431 9.23923 8.14115 9.23923 8.71412C9.23923 10.1465 8.66626 11.4596 7.71132 12.4145C6.75637 13.3695 5.46719 13.9425 4.0109 13.9425C3.67666 13.9425 3.36631 13.9186 3.05595 13.847C2.93658 13.8231 2.84108 13.7992 2.72172 13.7753C2.67397 13.9663 2.62622 14.1573 2.57847 14.3483C2.50685 14.7064 2.45911 15.0406 2.45911 15.3988C2.45911 17.4519 3.29468 19.314 4.63161 20.6748C5.99241 22.0356 7.85456 22.8473 9.90769 22.8473C11.9608 22.8473 13.823 22.0118 15.1838 20.6748C16.5446 19.3379 17.3563 17.4519 17.3563 15.3988C17.3563 12.1281 13.7036 7.92629 11.0775 4.87046C10.6716 4.34524 10.2897 3.89164 9.90769 3.46191Z" fill="#DA5E19"/>
<path d="M54.4937 38.7344L49.4315 33.4595V16.7963C49.4315 15.7988 48.6554 14.9902 47.6981 14.9902H38.4151C37.4578 14.9902 36.6817 15.7988 36.6817 16.7963V20.1743L30.3577 13.5846C29.6808 12.8794 28.5833 12.8794 27.9064 13.5846L3.77036 38.7344C2.68309 39.8597 3.46425 41.8232 4.99596 41.8176H11.0227L27.9062 24.2248C28.5831 23.5196 29.6806 23.5196 30.3575 24.2248L47.2411 41.8176H53.2678C54.8005 41.823 55.5805 39.8593 54.4937 38.7344Z" fill="#DA5E19"/>
<path d="M15.9253 41.819H42.3387L29.1319 28.0576L15.9253 41.819Z" fill="#DA5E19"/>
</svg>
