<svg width="43" height="43" viewBox="0 0 43 43" fill="none" xmlns="http://www.w3.org/2000/svg">
<path d="M0.465952 16.0413C0.199239 16.4738 0.0714111 16.9368 0.0714111 17.4235C0.0714111 21.5589 9.66445 22.8309 13.7597 23.1782C14.9922 24.1169 17.2958 25.5172 18.8338 28.5865C18.9044 28.7274 19.0494 28.8157 19.207 28.8157H24.8287C25.5506 28.8157 26.1715 29.3708 26.2051 30.0918C26.2409 30.8615 25.6281 31.4962 24.8663 31.4962H17.5325C16.8106 31.4962 16.1897 32.0513 16.1561 32.7723C16.1203 33.542 16.7331 34.1768 17.4949 34.1768H20.1854C20.2794 36.3347 19.8053 39.0044 19.1392 40.6988C18.6059 41.3445 18.6999 42.5012 19.6343 42.8969C20.0578 43.0751 20.5866 43.0274 20.9871 42.7134C21.9136 42.4311 23.9583 41.689 26.0047 40.156C28.5428 38.2545 31.5677 34.7439 31.5677 28.8157H33.5404C34.2623 28.8157 34.8832 28.2607 34.9168 27.5395C34.9527 26.7699 34.3398 26.1352 33.5781 26.1352H27.5845C26.8626 26.1352 26.2416 25.5801 26.2081 24.859C26.1722 24.0894 26.7851 23.4547 27.5469 23.4547H30.3959C30.673 23.4547 30.8743 23.1902 30.7993 22.9235C30.4655 21.735 30.2274 20.6841 30.2274 18.0936C30.2274 17.462 30.3313 16.8832 30.5181 16.3353C33.1135 16.0808 36.2871 15.6262 38.7691 14.8644C40.5684 14.3115 42.9599 13.3507 42.9599 11.3923C42.9599 9.80279 41.3527 8.86778 39.8221 8.27958C39.6204 8.20209 39.3941 8.29315 39.2983 8.48681C39.0344 9.02049 38.7274 9.55886 38.4044 10.069C38.2599 10.2973 38.3632 10.5996 38.6178 10.6904C39.4294 10.98 39.8693 11.2319 40.0985 11.3964C39.647 11.7164 38.5539 12.219 36.4672 12.7066C32.0731 13.7348 26.094 14.0709 21.5541 14.0728C20.8312 14.0731 20.2097 13.5173 20.1769 12.7951C20.142 12.0261 20.7545 11.3923 21.5157 11.3923C25.6699 11.3923 30.6557 11.122 34.7588 10.3772C34.8598 10.3588 34.9506 10.3038 35.0137 10.2229C37.0719 7.58456 38.2676 4.87237 38.2691 1.34697C38.2694 0.606219 37.6695 0 36.9288 0H6.10269C5.36244 0 4.76242 0.60069 4.76242 1.34094C4.76242 2.11377 4.76242 2.86875 4.76946 3.60691C4.77147 3.83643 4.95877 4.0208 5.18829 4.0208H20.1378C20.8597 4.0208 21.4806 4.57583 21.5142 5.2969C21.5499 6.06663 20.9372 6.70133 20.1754 6.70133H2.11942C1.39752 6.70133 0.776642 7.25637 0.743052 7.97743C0.7072 8.74716 1.32004 9.38186 2.08181 9.38186H5.11081C5.48106 12.038 6.2146 14.3628 7.59039 16.6335C7.64919 16.7305 7.74519 16.7997 7.85584 16.8249C11.6736 17.6941 16.2589 18.0077 20.1369 18.0098C20.8586 18.0102 21.4796 18.5632 21.5141 19.2841C21.551 20.0546 20.9378 20.6904 20.1754 20.6904C17.7696 20.6904 15.4225 20.5798 13.2002 20.362C10.0122 20.0513 10.0795 19.8881 10.2222 20.0445C8.69083 19.797 7.05646 19.4534 5.57823 18.9639C3.54354 18.2854 2.86754 17.6387 2.76032 17.4226C2.83822 17.2578 3.18418 16.9182 4.00995 16.5112C4.21333 16.4111 4.29995 16.167 4.20563 15.9608C3.95366 15.4097 3.73008 14.8545 3.54203 14.3231C3.45558 14.0787 3.17036 13.9722 2.94385 14.0981C2.24892 14.4843 0.932448 15.2849 0.465952 16.0413Z" fill="#DA5E19"/>
</svg>
