<svg width="43" height="43" viewBox="0 0 43 43" fill="none" xmlns="http://www.w3.org/2000/svg">
<path d="M26.5588 6.95588C26.5588 3.11404 29.6726 0 33.5147 0C37.3565 0 40.4706 3.11378 40.4706 6.95588C40.4706 10.7977 37.3568 13.9118 33.5147 13.9118C29.6729 13.9118 26.5588 10.798 26.5588 6.95588ZM35.6207 3.06136C34.9944 2.72206 34.2771 2.52941 33.5147 2.52941C31.0696 2.52941 29.0882 4.51095 29.0882 6.95588C29.0882 7.71829 29.2809 8.43561 29.6202 9.06184L35.6207 3.06136ZM37.4092 4.84992L31.4087 10.8504C32.035 11.1897 32.7523 11.3824 33.5147 11.3824C35.9598 11.3824 37.9412 9.40082 37.9412 6.95588C37.9412 6.19347 37.7485 5.47615 37.4092 4.84992ZM26.5588 40.4706H28.4559V17.7059C28.4559 17.0074 29.0221 16.4412 29.7206 16.4412H37.3088C38.0073 16.4412 38.5735 17.0074 38.5735 17.7059V40.4706H41.7353C42.4338 40.4706 43 41.0368 43 41.7353C43 42.4338 42.4338 43 41.7353 43H1.26471C0.566228 43 0 42.4338 0 41.7353C0 41.0368 0.566228 40.4706 1.26471 40.4706H4.42647V31.6176C4.42647 30.9192 4.9927 30.3529 5.69118 30.3529H13.2794C13.9779 30.3529 14.5441 30.9192 14.5441 31.6176V40.4706H16.4412V25.9265C16.4412 25.228 17.0074 24.6618 17.7059 24.6618H25.2941C25.9926 24.6618 26.5588 25.228 26.5588 25.9265V40.4706Z" fill="#DA5E19"/>
</svg>
