<svg width="44" height="44" viewBox="0 0 44 44" fill="none" xmlns="http://www.w3.org/2000/svg">
<path d="M18.9923 21.4844V26.9374C19.7656 26.6252 20.7452 26.3828 21.9933 26.3828C23.2488 26.3828 24.2325 26.6283 25.0079 26.9433V21.4844H18.9923Z" fill="#DA5E19"/>
<path d="M16.3677 27.8879C16.3829 27.8979 16.3983 27.9082 16.4141 27.9186V20.1952C16.4141 19.4833 16.9912 18.9062 17.7031 18.9062H26.2969C27.0088 18.9062 27.5859 19.4833 27.5859 20.1952V27.9087C27.5967 27.9016 27.6075 27.8944 27.618 27.8875C28.4661 27.3245 29.885 26.3828 32.3463 26.3828C34.093 26.3828 35.3144 26.8568 36.1797 27.333V14.2835L38.3823 16.0456C38.62 16.2358 38.9042 16.3281 39.1866 16.3281C39.5648 16.3281 39.9395 16.1625 40.1941 15.8443C40.6388 15.2884 40.5487 14.4771 39.9927 14.0325L22.8052 0.282498C22.3344 -0.094166 21.6655 -0.094166 21.1948 0.282498L4.00726 14.0325C3.45124 14.4772 3.36118 15.2884 3.80591 15.8443C4.25063 16.4002 5.06189 16.4904 5.61773 16.0456L7.82031 14.2835V27.3271C8.68467 26.8527 9.90231 26.3827 11.6404 26.3827C14.1015 26.3827 15.5201 27.3249 16.3677 27.8879ZM22 6.87494C24.1324 6.87494 25.8672 8.60976 25.8672 10.7421C25.8672 12.8745 24.1324 14.6093 22 14.6093C19.8676 14.6093 18.1328 12.8745 18.1328 10.7421C18.1328 8.60976 19.8676 6.87494 22 6.87494Z" fill="#DA5E19"/>
<path d="M42.711 28.9609C41.0268 28.9609 40.1288 29.5566 39.4074 30.0352C38.8222 30.4232 38.4356 30.6797 37.5287 30.6797C36.6218 30.6797 36.2353 30.4232 35.6501 30.0352C34.9286 29.5566 34.0306 28.9609 32.3464 28.9609C30.6628 28.9609 29.7654 29.5567 29.0441 30.0353C28.4596 30.4233 28.0734 30.6797 27.1677 30.6797C26.2633 30.6797 25.8776 30.4235 25.2939 30.0357C24.5729 29.5568 23.676 28.9609 21.9933 28.9609C20.31 28.9609 19.4127 29.5567 18.6917 30.0355C18.1074 30.4234 17.7215 30.6797 16.8162 30.6797C15.9114 30.6797 15.5255 30.4234 14.9416 30.0356C14.2207 29.5568 13.3235 28.9609 11.6405 28.9609C9.95747 28.9609 9.06037 29.5568 8.33944 30.0356C7.7554 30.4234 7.36963 30.6797 6.4648 30.6797C5.56005 30.6797 5.17419 30.4234 4.59024 30.0356C3.86923 29.5568 2.97212 28.9609 1.28912 28.9609C0.577217 28.9609 6.10352e-05 29.5381 6.10352e-05 30.25V34.332H1.28912C2.97212 34.332 3.86923 34.9279 4.59015 35.4067C5.17419 35.7945 5.55996 36.0508 6.46471 36.0508C7.36955 36.0508 7.7554 35.7945 8.33935 35.4067C9.06028 34.9279 9.95738 34.332 11.6404 34.332C13.3234 34.332 14.2205 34.9279 14.9414 35.4067C15.5254 35.7945 15.9112 36.0508 16.8161 36.0508C17.7213 36.0508 18.1073 35.7945 18.6916 35.4066C19.4126 34.9278 20.3098 34.332 21.9931 34.332C23.6758 34.332 24.5729 34.9279 25.2936 35.4068C25.8773 35.7946 26.263 36.0508 27.1674 36.0508C28.0732 36.0508 28.4594 35.7945 29.0438 35.4064C29.7651 34.9278 30.6626 34.332 32.3462 34.332C34.0305 34.332 34.9284 34.9277 35.6499 35.4062C36.2351 35.7943 36.6216 36.0508 37.5285 36.0508C38.4354 36.0508 38.822 35.7943 39.4071 35.4062C40.1287 34.9277 41.0266 34.332 42.7107 34.332H43.9998V30.25C44.0001 29.5381 43.4229 28.9609 42.711 28.9609Z" fill="#DA5E19"/>
<path d="M42.711 36.9102C41.8041 36.9102 41.4176 37.1666 40.8324 37.5547C40.1109 38.0333 39.2129 38.6289 37.5287 38.6289C35.8445 38.6289 34.9465 38.0333 34.2251 37.5547C33.6399 37.1666 33.2533 36.9102 32.3464 36.9102C31.4406 36.9102 31.0545 37.1664 30.47 37.5545C29.7487 38.0332 28.8513 38.6289 27.1677 38.6289C25.485 38.6289 24.588 38.033 23.8672 37.5542C23.2835 37.1663 22.8979 36.9102 21.9934 36.9102C21.0881 36.9102 20.7021 37.1664 20.1179 37.5543C19.3968 38.0331 18.4996 38.6289 16.8163 38.6289C15.1333 38.6289 14.2362 38.033 13.5153 37.5543C12.9312 37.1664 12.5455 36.9102 11.6406 36.9102C10.7358 36.9102 10.3499 37.1664 9.766 37.5543C9.04507 38.033 8.14797 38.6289 6.46497 38.6289C4.78205 38.6289 3.88495 38.033 3.16402 37.5543C2.57982 37.1664 2.19396 36.9102 1.28912 36.9102H6.10352e-05V40.9922C6.10352e-05 41.7041 0.577217 42.2812 1.28912 42.2812C2.19396 42.2812 2.57982 42.5375 3.16376 42.9254C3.88469 43.4041 4.78188 44 6.4648 44C8.14779 44 9.0449 43.4041 9.76583 42.9254C10.3499 42.5375 10.7356 42.2812 11.6405 42.2812C12.5453 42.2812 12.9312 42.5375 13.5151 42.9254C14.236 43.4041 15.1331 44 16.8161 44C18.4994 44 19.3967 43.4042 20.1177 42.9254C20.702 42.5375 21.0879 42.2812 21.9932 42.2812C22.8976 42.2812 23.2833 42.5374 23.8671 42.9253C24.5879 43.4041 25.4848 44 27.1675 44C28.8511 44 29.7485 43.4043 30.4698 42.9256C31.0543 42.5376 31.4405 42.2812 32.3462 42.2812C33.2532 42.2812 33.6398 42.5377 34.2249 42.9258C34.9465 43.4044 35.8443 44 37.5285 44C39.2127 44 40.1108 43.4044 40.8322 42.9258C41.4175 42.5377 41.804 42.2812 42.7108 42.2812C43.4227 42.2812 43.9999 41.7041 43.9999 40.9922V36.9102H42.711Z" fill="#DA5E19"/>
</svg>
