<svg width="37" height="37" viewBox="0 0 37 37" fill="none" xmlns="http://www.w3.org/2000/svg">
<path d="M35.9647 29.0428L27.6269 21.4618C27.2327 21.1036 26.7148 20.9126 26.1825 20.929C25.6501 20.9455 25.145 21.1681 24.7738 21.55L19.8654 26.5979C18.6839 26.3723 16.3087 25.6318 13.8638 23.193C11.4188 20.746 10.6783 18.3646 10.4589 17.1914L15.5026 12.281C15.885 11.91 16.108 11.4047 16.1244 10.8722C16.1409 10.3397 15.9495 9.82172 15.5908 9.42782L8.01186 1.092C7.653 0.696864 7.15424 0.457184 6.6215 0.423864C6.08877 0.390544 5.56403 0.56621 5.15873 0.913553L0.707765 4.73072C0.353146 5.08662 0.141486 5.5603 0.112935 6.0619C0.0821677 6.57469 -0.504457 18.7215 8.91436 28.1444C17.1312 36.3592 27.4238 36.9602 30.2585 36.9602C30.6728 36.9602 30.9272 36.9479 30.9948 36.9438C31.4964 36.9157 31.9698 36.7031 32.324 36.3469L36.1391 31.8939C36.4878 31.4899 36.6648 30.9656 36.6322 30.4329C36.5996 29.9002 36.3601 29.4013 35.9647 29.0428Z" fill="#24AEE0"/>
</svg>
