<svg width="30" height="30" viewBox="0 0 30 30" fill="none" xmlns="http://www.w3.org/2000/svg">
<g clip-path="url(#clip0_14_521)">
<path d="M4.41174 12.6934V26.4707H7.68451C6.71115 24.8019 6.17645 22.8831 6.17645 20.8906V15.9309H7.03674C8.01133 15.9309 8.80145 15.1408 8.80145 14.1662V13.3059H21.1985V14.1662C21.1985 15.1408 21.9886 15.9309 22.9632 15.9309H23.8235V20.8906C23.8235 22.8831 23.2888 24.8019 22.3154 26.4707H25.5882C25.5882 26.4707 25.5882 16.9271 25.5882 12.6717L15.0007 7.06885C13.3019 7.97126 8.45851 10.5438 4.41174 12.6934Z" fill="white"/>
<path d="M15 0.0625C14.1675 0.538206 0.832471 8.15762 0 8.63332V13.0384C0.519294 12.7626 14.3521 5.41521 14.9992 5.07144L14.9996 5.07162L15 5.07185C19.4406 7.42179 25.4217 10.587 30 13.0098C30 12.5163 30 9.15326 30 8.63332C29.1675 8.15762 15.8325 0.538206 15 0.0625Z" fill="white"/>
<path d="M19.4338 15.9527C19.4338 15.6441 19.4338 15.3789 19.4338 15.0703C16.7139 15.0703 13.2882 15.0703 10.5662 15.0703V15.9527C10.5662 16.9136 9.78446 17.6953 8.82352 17.6953C8.51493 17.6953 8.24975 17.6953 7.94116 17.6953V20.8903C7.94116 24.1331 9.58763 26.9424 12.0256 28.5967C13.499 29.5964 14.8478 29.8821 15 29.9374C15.1516 29.8824 16.5005 29.5967 17.9743 28.5967C20.3842 26.9615 22.0588 24.1654 22.0588 20.8903C22.0588 19.303 22.0588 18.6234 22.0588 17.6954C21.7502 17.6954 21.485 17.6954 21.1765 17.6954C20.2156 17.6953 19.4338 16.9136 19.4338 15.9527ZM14.0641 25.1196L11.5685 22.624L12.8162 21.3761L14.0641 22.624C15.0149 21.6732 16.1762 20.5118 17.1837 19.5044L18.4315 20.7522C17.9912 21.1925 14.5044 24.6793 14.0641 25.1196Z" fill="white"/>
</g>
<defs>
<clipPath id="clip0_14_521">
<rect width="30" height="30" fill="white"/>
</clipPath>
</defs>
</svg>
