<svg width="30" height="30" viewBox="0 0 30 30" fill="none" xmlns="http://www.w3.org/2000/svg">
<path d="M22.5013 12.1875C22.5013 6.50116 17.8749 1.875 12.1881 1.875C6.50145 1.875 1.875 6.50116 1.875 12.1875C1.875 17.8738 6.50145 22.5 12.1881 22.5C17.8749 22.5 22.5013 17.8738 22.5013 12.1875ZM12.1881 20.625C7.53559 20.625 3.75011 16.8402 3.75011 12.1875C3.75011 7.53479 7.53559 3.75 12.1881 3.75C16.8407 3.75 20.6262 7.53479 20.6262 12.1875C20.6262 16.8402 16.8407 20.625 12.1881 20.625Z" fill="white"/>
<path d="M27.2697 23.1299L24.1018 19.9622C23.8043 19.6648 23.3629 19.6217 23.0092 19.8073L21.5754 18.3735C20.7351 19.6442 19.6453 20.734 18.3745 21.5742L19.8083 23.0079C19.6228 23.3616 19.6659 23.803 19.9633 24.1004L23.1312 27.2681C23.6838 27.8211 24.4185 28.125 25.2005 28.125C25.9819 28.125 26.7166 27.8211 27.2701 27.2681C28.41 26.1264 28.41 24.2698 27.2697 23.1299Z" fill="white"/>
<path d="M12.1873 4.6875C8.04493 4.6875 4.68689 8.04537 4.68689 12.1875C4.68689 16.3296 8.04493 19.6875 12.1873 19.6875C16.3297 19.6875 19.6878 16.3296 19.6878 12.1875C19.6878 8.04537 16.3297 4.6875 12.1873 4.6875ZM13.6697 16.832L12.8008 17.5836C12.625 17.7361 12.4062 17.8125 12.1873 17.8125C11.9685 17.8125 11.7497 17.7361 11.5739 17.5836L10.705 16.8315C8.51768 14.9396 7.49956 12.8682 7.49956 10.3125C7.49956 9.95728 7.70006 9.63272 8.01775 9.47388L11.768 7.59888C12.0317 7.46704 12.343 7.46704 12.6067 7.59888L16.3569 9.47388C16.6746 9.63272 16.8751 9.95728 16.8751 10.3125C16.8751 12.8682 15.857 14.9396 13.6697 16.832Z" fill="white"/>
<path d="M14.4817 9.47366C14.0176 9.24295 13.4549 9.43063 13.2237 9.89298L11.9305 12.4793L10.9751 11.5244C10.6088 11.1582 10.0155 11.1582 9.64929 11.5244C9.28308 11.8907 9.28308 12.4839 9.64929 12.8501L11.5244 14.7251C11.7016 14.9027 11.9406 14.9998 12.1873 14.9998C12.2372 14.9998 12.2876 14.9961 12.3375 14.9879C12.635 14.9394 12.8909 14.7508 13.026 14.4816L14.9011 10.7316C15.1327 10.2683 14.945 9.70529 14.4817 9.47366Z" fill="white"/>
</svg>
