<svg width="30" height="30" viewBox="0 0 30 30" fill="none" xmlns="http://www.w3.org/2000/svg">
<path d="M15 7.03125C16.9416 7.03125 18.5156 5.45725 18.5156 3.51562C18.5156 1.574 16.9416 0 15 0C13.0584 0 11.4844 1.574 11.4844 3.51562C11.4844 5.45725 13.0584 7.03125 15 7.03125Z" fill="white"/>
<path d="M21.1523 13.2422C21.1523 9.85014 18.3921 7.03125 15 7.03125C11.6079 7.03125 8.84766 9.85014 8.84766 13.2422V15.8789H21.1523V13.2422Z" fill="white"/>
<path d="M26.3456 13.3606C25.8601 20.9612 22.6 22.7296 22.4244 22.8174L21.6227 21.2527C21.6512 21.2371 23.4664 20.1448 24.2773 15.9113C20.1079 16.2588 16.6952 19.5161 16.1947 23.7607C15.9853 25.5434 15.8794 27.3855 15.8794 29.121L15.8789 30H22.9102V29.1211C22.9102 28.2748 23.5385 27.6912 24.7426 26.6483C26.8129 24.8562 30 22.0879 30 15V10.6055C30 10.6055 29.1013 10.6055 29.0915 10.6056C27.6344 10.6154 26.4386 11.9064 26.3456 13.3606Z" fill="white"/>
<path d="M5.25738 26.6483C6.46154 27.6912 7.08984 28.2748 7.08984 29.1211V30H14.1211V29.1211C14.1211 27.3856 14.0147 25.5434 13.8052 23.7608C13.3047 19.5161 9.89209 16.2588 5.72262 15.9113C6.5335 20.1448 8.34873 21.2371 8.37727 21.2528L7.57559 22.8175C7.39998 22.7296 4.13988 20.9612 3.65432 13.3607C3.56139 11.9065 2.36555 10.6155 0.908496 10.6056C0.898652 10.6055 0 10.6055 0 10.6055V15C0 22.0879 3.18715 24.8562 5.25738 26.6483Z" fill="white"/>
</svg>
