<svg width="30" height="30" viewBox="0 0 30 30" fill="none" xmlns="http://www.w3.org/2000/svg">
<path d="M21.5625 12.1875C21.5625 11.8323 21.362 11.5082 21.0443 11.3489L15.4193 8.53638C15.1556 8.40454 14.8444 8.40454 14.5807 8.53638L8.95569 11.3489C8.638 11.5082 8.4375 11.8323 8.4375 12.1875C8.4375 16.0419 10.1358 19.6664 13.0957 22.1338L14.3994 23.2205C14.5734 23.3652 14.7867 23.4375 15 23.4375C15.2133 23.4375 15.4266 23.3652 15.6006 23.2205L16.9034 22.1338C19.8642 19.6664 21.5625 16.0419 21.5625 12.1875ZM15.7496 17.4371C15.5866 17.655 15.3376 17.7905 15.0666 17.8098C15.0437 17.8116 15.0217 17.8125 14.9998 17.8125C14.7517 17.8125 14.5136 17.7145 14.3369 17.5378L12.4619 15.6628C12.0957 15.2966 12.0957 14.7034 12.4619 14.3372C12.8281 13.9709 13.4214 13.9709 13.7876 14.3372L14.8981 15.4477L17.0625 12.5629C17.3737 12.1481 17.9606 12.0657 18.3744 12.3752C18.7891 12.6855 18.8734 13.2733 18.5621 13.6871L15.7496 17.4371Z" fill="white"/>
<path d="M8.27791 16.7659C7.771 15.3123 7.5 13.7687 7.5 12.1875C7.5 11.4734 7.89642 10.8307 8.53546 10.5112L14.1614 7.69775C14.4205 7.56866 14.7107 7.5 15 7.5C15.2893 7.5 15.5795 7.56866 15.8386 7.69775L21.4636 10.5103C22.1036 10.8307 22.5 11.4734 22.5 12.1875C22.5 13.7687 22.2291 15.3123 21.7221 16.7659C24.3002 16.254 26.25 13.9763 26.25 11.25C26.25 8.14819 23.7268 5.625 20.625 5.625C20.5166 5.625 20.4163 5.65281 20.3194 5.68657C19.5626 3.47311 17.4667 1.875 15 1.875C12.5333 1.875 10.4374 3.47311 9.68056 5.68657C9.58374 5.65281 9.48343 5.625 9.375 5.625C6.27319 5.625 3.75 8.14819 3.75 11.25C3.75 13.9763 5.69979 16.254 8.27791 16.7659Z" fill="white"/>
<path d="M10.3125 20.5605V24.3752H7.32725C6.93901 23.2863 5.90807 22.5002 4.6875 22.5002C3.1366 22.5002 1.875 23.7618 1.875 25.3127C1.875 26.8636 3.1366 28.1252 4.6875 28.1252C5.90807 28.1252 6.93901 27.3391 7.32725 26.2502H11.25C11.7682 26.2502 12.1875 25.8309 12.1875 25.3127V22.568C11.494 21.9535 10.8619 21.2859 10.3125 20.5605Z" fill="white"/>
<path d="M25.3125 22.5002C24.0919 22.5002 23.061 23.2863 22.6727 24.3752H19.6875V20.5601C19.1381 21.2853 18.506 21.9527 17.8125 22.5672V25.3127C17.8125 25.8309 18.2318 26.2502 18.75 26.2502H22.6728C23.061 27.3391 24.0919 28.1252 25.3125 28.1252C26.8634 28.1252 28.125 26.8636 28.125 25.3127C28.125 23.7618 26.8634 22.5002 25.3125 22.5002Z" fill="white"/>
</svg>
