<svg width="30" height="30" viewBox="0 0 30 30" fill="none" xmlns="http://www.w3.org/2000/svg">
<path d="M6.98365 1.08178L3.6847 4.37961C3.47335 4.5909 3.623 4.9523 3.92183 4.9523H7.22078C7.40605 4.95224 7.55622 4.80207 7.55622 4.6168V1.31902C7.55622 1.02019 7.19494 0.870546 6.98365 1.08178Z" fill="white"/>
<path d="M21.681 18.5664C18.5288 18.5664 15.9644 21.1309 15.9644 24.283C15.9644 27.4352 18.5288 29.9997 21.681 29.9997C24.8332 29.9997 27.3977 27.4353 27.3977 24.283C27.3978 21.1309 24.8332 18.5664 21.681 18.5664ZM20.8002 22.0523C20.8002 21.5658 21.1946 21.1714 21.6811 21.1714C22.1676 21.1714 22.562 21.5658 22.562 22.0523V24.2831C22.562 24.7696 22.1676 25.164 21.6811 25.164C21.1946 25.164 20.8002 24.7696 20.8002 24.2831V22.0523ZM22.5574 26.701C22.5545 26.7297 22.5504 26.7585 22.5445 26.7867C22.5392 26.8149 22.5315 26.8431 22.5233 26.8701C22.5151 26.8977 22.5051 26.9247 22.4946 26.9511C22.4835 26.9775 22.4711 27.004 22.4577 27.0292C22.4442 27.0545 22.4295 27.0797 22.4136 27.1032C22.3977 27.1273 22.3801 27.1508 22.3619 27.1731C22.3436 27.1954 22.3243 27.2172 22.3038 27.2371C22.2838 27.2577 22.2621 27.2771 22.2398 27.2958C22.2174 27.3135 22.194 27.331 22.1699 27.3469C22.1464 27.3628 22.1212 27.3774 22.0959 27.391C22.0706 27.4045 22.0442 27.4168 22.0178 27.4279C21.9914 27.4391 21.9644 27.4485 21.9368 27.4567C21.9091 27.4655 21.8816 27.4726 21.8534 27.4779C21.8252 27.4837 21.7964 27.4884 21.7677 27.4908C21.7389 27.4937 21.7101 27.4955 21.6813 27.4955C21.6526 27.4955 21.6232 27.4937 21.5945 27.4908C21.5663 27.4885 21.5375 27.4838 21.5093 27.4779C21.4811 27.4726 21.4529 27.4656 21.4254 27.4567C21.3977 27.4485 21.3707 27.4391 21.3443 27.4279C21.3179 27.4168 21.2915 27.4045 21.2662 27.391C21.2409 27.3774 21.2162 27.3628 21.1921 27.3469C21.1681 27.331 21.1446 27.3135 21.1228 27.2958C21.0999 27.277 21.0788 27.2577 21.0583 27.2371C21.0376 27.2171 21.0182 27.1954 21.0001 27.1731C20.9819 27.1508 20.9649 27.1273 20.949 27.1032C20.9326 27.0797 20.9179 27.0545 20.9044 27.0292C20.8909 27.004 20.8786 26.9775 20.868 26.9511C20.8569 26.9247 20.8469 26.8977 20.8387 26.8701C20.8304 26.8431 20.8234 26.8149 20.8175 26.7867C20.8116 26.7585 20.8075 26.7297 20.8046 26.701C20.8016 26.6722 20.8004 26.6434 20.8004 26.6147C20.8004 26.5859 20.8017 26.5565 20.8046 26.5278C20.8075 26.4996 20.8116 26.4708 20.8175 26.4426C20.8234 26.4145 20.8304 26.3863 20.8387 26.3587C20.8469 26.3317 20.8569 26.3041 20.868 26.2776C20.8786 26.2512 20.8909 26.2248 20.9044 26.1995C20.9178 26.1743 20.9325 26.1496 20.949 26.1255C20.965 26.1014 20.9819 26.078 21.0001 26.0562C21.0184 26.0339 21.0377 26.0121 21.0583 25.9916C21.0788 25.9717 21.1 25.9517 21.1228 25.9335C21.1446 25.9153 21.1681 25.8983 21.1921 25.8824C21.2162 25.8665 21.2409 25.8513 21.2662 25.8378C21.2915 25.8242 21.3179 25.8119 21.3443 25.8014C21.3707 25.7903 21.3977 25.7802 21.4254 25.772C21.4529 25.7638 21.4811 25.7567 21.5093 25.7509C21.5376 25.745 21.5663 25.7409 21.5945 25.7379C21.6519 25.7321 21.7101 25.7321 21.7677 25.7379C21.7964 25.7409 21.8252 25.745 21.8534 25.7509C21.8816 25.7567 21.9092 25.7638 21.9368 25.772C21.9644 25.7802 21.9914 25.7903 22.0179 25.8014C22.0443 25.8119 22.0706 25.8243 22.096 25.8378C22.1212 25.8513 22.1464 25.8665 22.17 25.8824C22.194 25.8983 22.2175 25.9153 22.2399 25.9335C22.2622 25.9517 22.2839 25.9717 22.3038 25.9916C22.3244 26.0122 22.3438 26.0339 22.3619 26.0562C22.3802 26.078 22.3977 26.1014 22.4137 26.1255C22.4295 26.1496 22.4442 26.1743 22.4577 26.1995C22.4711 26.2248 22.4835 26.2512 22.4947 26.2776C22.5052 26.3041 22.5153 26.3317 22.5234 26.3587C22.5317 26.3863 22.5393 26.4145 22.5446 26.4426C22.5505 26.4708 22.5545 26.4996 22.5574 26.5278C22.5604 26.5565 22.5621 26.5859 22.5621 26.6147C22.5621 26.6434 22.5604 26.6722 22.5574 26.701Z" fill="white"/>
<path d="M20.0785 0H9.65347C9.46819 0 9.31802 0.150176 9.31802 0.335449V5.79205C9.31802 5.79896 9.31714 5.8057 9.31696 5.81256C9.31714 5.81941 9.31802 5.82615 9.31802 5.83307C9.31802 6.31957 8.92362 6.71396 8.43712 6.71396H2.93774C2.75247 6.71396 2.60229 6.86414 2.60229 7.04941V23.4794C2.60229 24.851 3.71417 25.9628 5.08573 25.9628H14.3424C14.7268 25.9628 15.0164 25.6128 14.9432 25.2354C14.8606 24.8099 14.8174 24.3704 14.8174 23.9207C14.8174 20.13 17.8903 17.3507 21.6811 17.3507C21.7644 17.3507 21.8475 17.3521 21.9301 17.3551C22.2757 17.3675 22.5619 17.0893 22.5619 16.7435V2.48344C22.5619 1.11187 21.4501 0 20.0785 0ZM11.4908 20.9027H7.00901C6.52251 20.9027 6.12812 20.5083 6.12812 20.0218C6.12812 19.5353 6.52251 19.1409 7.00901 19.1409H11.4908C11.9774 19.1409 12.3717 19.5353 12.3717 20.0218C12.3717 20.5083 11.9774 20.9027 11.4908 20.9027ZM18.1553 17.396H7.00896C6.52245 17.396 6.12806 17.0016 6.12806 16.5151C6.12806 16.0286 6.52245 15.6342 7.00896 15.6342H18.1553C18.6418 15.6342 19.0362 16.0286 19.0362 16.5151C19.0362 17.0016 18.6417 17.396 18.1553 17.396ZM18.1553 13.8623H7.00896C6.52245 13.8623 6.12806 13.4679 6.12806 12.9814C6.12806 12.4949 6.52245 12.1005 7.00896 12.1005H18.1553C18.6418 12.1005 19.0362 12.4949 19.0362 12.9814C19.0362 13.4679 18.6417 13.8623 18.1553 13.8623ZM18.1553 10.4643H7.00896C6.52245 10.4643 6.12806 10.0699 6.12806 9.58336C6.12806 9.09686 6.52245 8.70246 7.00896 8.70246H18.1553C18.6418 8.70246 19.0362 9.09686 19.0362 9.58336C19.0362 10.0699 18.6417 10.4643 18.1553 10.4643Z" fill="white"/>
</svg>
