<svg width="12" height="11" viewBox="0 0 12 11" fill="none" xmlns="http://www.w3.org/2000/svg">
<path d="M11.7516 5.40988L6.2994 0.120466C6.26014 0.0822787 6.21351 0.0519824 6.16218 0.0313112C6.11085 0.0106401 6.05582 0 6.00025 0C5.94467 0 5.88965 0.0106401 5.83832 0.0313112C5.78698 0.0519824 5.74035 0.0822787 5.7011 0.120466L0.248852 5.40988C0.0900103 5.56409 0 5.77356 0 5.99202C0 6.44566 0.379897 6.81448 0.847156 6.81448H1.42163V10.5888C1.42163 10.8162 1.61092 11 1.84521 11H5.15309V8.12141H6.63562V11H10.1553C10.3896 11 10.5789 10.8162 10.5789 10.5888V6.81448H11.1533C11.3784 6.81448 11.5941 6.72838 11.753 6.57288C12.0826 6.25161 12.0826 5.73115 11.7516 5.40988Z" fill="#717171"/>
</svg>
