<svg width="37" height="37" viewBox="0 0 37 37" fill="none" xmlns="http://www.w3.org/2000/svg">
<g clip-path="url(#clip0_11_1539)">
<path d="M21.8555 23.3059H26.5019V27.9524H21.8555V23.3059Z" fill="white"/>
<path d="M30.2512 21.2754L18.5 12.3904L6.7491 21.2752C5.88396 21.954 4.86799 22.3498 3.78735 22.4335V33.8505C3.78735 34.4491 4.27268 34.9344 4.87132 34.9344H8.33024V22.2219C8.33024 21.6233 8.81557 21.138 9.41421 21.138H16.2286C16.8272 21.138 17.3125 21.6233 17.3125 22.2219V34.9344H32.1287C32.7274 34.9344 33.2127 34.4491 33.2127 33.8505V22.4322C32.1392 22.3453 31.1022 21.9426 30.2512 21.2754ZM19.6875 22.2219C19.6875 21.6233 20.1728 21.138 20.7715 21.138H27.5858C28.1845 21.138 28.6698 21.6233 28.6698 22.2219V29.0363C28.6698 29.6349 28.1845 30.1203 27.5858 30.1203H20.7715C20.1728 30.1203 19.6875 29.6349 19.6875 29.0363V22.2219Z" fill="white"/>
<path d="M10.4982 23.3059H15.1446V34.9344H10.4982V23.3059Z" fill="white"/>
<path d="M35.7438 14.3238C35.7368 14.3182 35.7298 14.3127 35.7227 14.3072L20.5788 2.79502C19.3527 1.82256 17.6474 1.82256 16.4213 2.79502L1.27736 14.3072C1.27028 14.3126 1.26327 14.3181 1.25626 14.3238C0.558402 14.8821 0.119614 15.6787 0.0209011 16.567C-0.0778118 17.4553 0.17533 18.3289 0.733643 19.0268C1.29203 19.7246 2.08867 20.1634 2.97687 20.2621C3.10268 20.276 3.2282 20.283 3.35293 20.283C4.10383 20.283 4.82741 20.0321 5.4241 19.5592L18.4999 9.67255L31.5759 19.5592C32.1649 20.0258 32.9016 20.2826 33.652 20.2826C34.6748 20.2826 35.6278 19.8249 36.2663 19.0267C36.8247 18.3289 37.0778 17.4553 36.9791 16.567C36.8803 15.6787 36.4416 14.882 35.7438 14.3238Z" fill="white"/>
</g>
<defs>
<clipPath id="clip0_11_1539">
<rect width="37" height="37" fill="white"/>
</clipPath>
</defs>
</svg>
