<svg width="37" height="37" viewBox="0 0 37 37" fill="none" xmlns="http://www.w3.org/2000/svg">
<path d="M20.1013 21.7904C20.095 21.7883 20.0893 21.7862 20.0832 21.7839V24.0126C20.5234 23.8178 20.784 23.4032 20.8499 23.011C20.8855 22.7993 20.9367 22.0857 20.1013 21.7904Z" fill="white"/>
<path d="M19.584 15.1758C16.197 15.1758 13.4414 17.9313 13.4414 21.3184C13.4414 24.7054 16.197 27.4609 19.584 27.4609C22.971 27.4609 25.7266 24.7054 25.7266 21.3184C25.7266 17.9313 22.971 15.1758 19.584 15.1758ZM21.919 23.1908C21.775 24.0468 21.1136 24.9147 20.0833 25.1489V25.6543C20.0833 25.9537 19.8407 26.1963 19.5413 26.1963C19.2419 26.1963 18.9993 25.9537 18.9993 25.6543V25.1979C18.4789 25.1617 18.0623 25.0353 17.4619 24.6426C17.2114 24.4787 17.1412 24.1429 17.305 23.8923C17.4688 23.6418 17.8047 23.5715 18.0553 23.7354C18.4337 23.9829 18.6631 24.0772 18.9993 24.1106V21.3578C18.5869 21.1718 18.2826 20.9944 18.0357 20.8008C17.5444 20.4155 17.3206 19.7448 17.4514 19.0504C17.5944 18.2912 18.1222 17.6874 18.8287 17.4745C18.8865 17.4571 18.9431 17.4421 18.9993 17.4283V16.9824C18.9993 16.683 19.2419 16.4404 19.5413 16.4404C19.8407 16.4404 20.0833 16.683 20.0833 16.9824V17.3656C20.6977 17.4551 21.1296 17.752 21.3346 17.9875C21.5313 18.2132 21.5077 18.5555 21.2819 18.7521C21.057 18.948 20.7163 18.9254 20.5192 18.7017C20.5092 18.6914 20.3654 18.5492 20.0833 18.4722V20.6308C20.2105 20.6784 20.3379 20.7245 20.4626 20.7686C21.5311 21.1462 22.1027 22.097 21.919 23.1908Z" fill="white"/>
<path d="M18.5166 19.2513C18.4618 19.542 18.5356 19.8155 18.7046 19.9481C18.7904 20.0153 18.8901 20.0804 18.9992 20.1437V18.5703C18.7132 18.7176 18.5627 19.0069 18.5166 19.2513Z" fill="white"/>
<path d="M32.6641 34.1094C32.6641 35.3067 33.6347 36.2773 34.832 36.2773C36.0293 36.2773 37 35.3067 37 34.1094V22.4023H32.6641V34.1094Z" fill="white"/>
<path d="M35.6835 0.750672C33.1249 1.3465 31.2188 3.6413 31.2188 6.38132V19.1504C31.2188 19.749 31.7041 20.2344 32.3027 20.2344H37V1.80951C37 1.1172 36.3578 0.593639 35.6835 0.750672Z" fill="white"/>
<path d="M10.8398 1.80664C10.8398 1.20799 10.3545 0.722656 9.75586 0.722656C9.15721 0.722656 8.67188 1.20799 8.67188 1.80664V7.94922H6.50391V1.80664C6.50391 1.20799 6.01857 0.722656 5.41992 0.722656C4.82127 0.722656 4.33594 1.20799 4.33594 1.80664V7.94922H2.16797V1.80664C2.16797 1.20799 1.68263 0.722656 1.08398 0.722656C0.485336 0.722656 0 1.20799 0 1.80664V9.31829C0 10.9461 0.813566 12.4662 2.16797 13.3691L3.25195 14.0918V34.1094C3.25195 35.3067 4.22255 36.2773 5.41992 36.2773C6.61729 36.2773 7.58789 35.3067 7.58789 34.1094V14.0918L8.67188 13.3691C10.0263 12.4662 10.8398 10.9461 10.8398 9.31829V1.80664Z" fill="white"/>
<path d="M29.0508 19.1504V9.92352C26.4837 7.78843 23.184 6.50391 19.584 6.50391C17.2218 6.50391 14.9894 7.05768 13.0078 8.04107V9.31829C13.0078 11.6763 11.8365 13.865 9.87452 15.173L9.75586 15.2521V32.4021C12.3711 34.7228 15.8126 36.1328 19.584 36.1328C23.9021 36.1328 27.7883 34.2848 30.4961 31.337V21.8528C29.6252 21.2687 29.0508 20.2755 29.0508 19.1504ZM19.584 29.6289C15.0015 29.6289 11.2734 25.9008 11.2734 21.3184C11.2734 16.7359 15.0015 13.0078 19.584 13.0078C24.1664 13.0078 27.8945 16.7359 27.8945 21.3184C27.8945 25.9008 24.1664 29.6289 19.584 29.6289Z" fill="white"/>
</svg>
