<svg width="30" height="30" viewBox="0 0 30 30" fill="none" xmlns="http://www.w3.org/2000/svg">
<path d="M16.7329 2.13081L2.61974 0.0277079C1.9648 -0.0730393 1.29703 0.103268 0.796195 0.51885C0.295363 0.947026 0 1.5641 0 2.20637V28.7407C0 29.4333 0.577883 30 1.28419 30H5.45779V23.3885C5.45779 22.1669 6.45945 21.1846 7.70511 21.1846H10.9156C12.1612 21.1846 13.1629 22.1669 13.1629 23.3885V30H18.6207V4.30946C18.6207 3.22643 17.8245 2.30711 16.7329 2.13081ZM7.06302 18.3511H5.13674C4.60509 18.3511 4.1736 17.928 4.1736 17.4066C4.1736 16.8852 4.60509 16.4621 5.13674 16.4621H7.06302C7.59467 16.4621 8.02616 16.8852 8.02616 17.4066C8.02616 17.928 7.59467 18.3511 7.06302 18.3511ZM7.06302 14.5731H5.13674C4.60509 14.5731 4.1736 14.1499 4.1736 13.6286C4.1736 13.1072 4.60509 12.6841 5.13674 12.6841H7.06302C7.59467 12.6841 8.02616 13.1072 8.02616 13.6286C8.02616 14.1499 7.59467 14.5731 7.06302 14.5731ZM7.06302 10.7951H5.13674C4.60509 10.7951 4.1736 10.3719 4.1736 9.85056C4.1736 9.32919 4.60509 8.90605 5.13674 8.90605H7.06302C7.59467 8.90605 8.02616 9.32919 8.02616 9.85056C8.02616 10.3719 7.59467 10.7951 7.06302 10.7951ZM7.06302 7.01704H5.13674C4.60509 7.01704 4.1736 6.59391 4.1736 6.07254C4.1736 5.55117 4.60509 5.12803 5.13674 5.12803H7.06302C7.59467 5.12803 8.02616 5.55117 8.02616 6.07254C8.02616 6.59391 7.59467 7.01704 7.06302 7.01704ZM13.4839 18.3511H11.5577C11.026 18.3511 10.5945 17.928 10.5945 17.4066C10.5945 16.8852 11.026 16.4621 11.5577 16.4621H13.4839C14.0156 16.4621 14.4471 16.8852 14.4471 17.4066C14.4471 17.928 14.0156 18.3511 13.4839 18.3511ZM13.4839 14.5731H11.5577C11.026 14.5731 10.5945 14.1499 10.5945 13.6286C10.5945 13.1072 11.026 12.6841 11.5577 12.6841H13.4839C14.0156 12.6841 14.4471 13.1072 14.4471 13.6286C14.4471 14.1499 14.0156 14.5731 13.4839 14.5731ZM13.4839 10.7951H11.5577C11.026 10.7951 10.5945 10.3719 10.5945 9.85056C10.5945 9.32919 11.026 8.90605 11.5577 8.90605H13.4839C14.0156 8.90605 14.4471 9.32919 14.4471 9.85056C14.4471 10.3719 14.0156 10.7951 13.4839 10.7951ZM13.4839 7.01704H11.5577C11.026 7.01704 10.5945 6.59391 10.5945 6.07254C10.5945 5.55117 11.026 5.12803 11.5577 5.12803H13.4839C14.0156 5.12803 14.4471 5.55117 14.4471 6.07254C14.4471 6.59391 14.0156 7.01704 13.4839 7.01704Z" fill="white"/>
<path d="M28.3206 13.2745L19.6553 11.3793V30H27.8703C29.0447 30 30.0001 29.0021 30.0001 27.7755V15.4481C30.0001 14.3982 29.3149 13.5046 28.3206 13.2745ZM25.4362 26.1866H23.6106C23.1068 26.1866 22.6979 25.7595 22.6979 25.2332C22.6979 24.707 23.1068 24.2799 23.6106 24.2799H25.4362C25.9401 24.2799 26.349 24.707 26.349 25.2332C26.349 25.7595 25.9401 26.1866 25.4362 26.1866ZM25.4362 22.3732H23.6106C23.1068 22.3732 22.6979 21.9461 22.6979 21.4199C22.6979 20.8936 23.1068 20.4665 23.6106 20.4665H25.4362C25.9401 20.4665 26.349 20.8936 26.349 21.4199C26.349 21.9461 25.9401 22.3732 25.4362 22.3732ZM25.4362 18.5598H23.6106C23.1068 18.5598 22.6979 18.1328 22.6979 17.6065C22.6979 17.0803 23.1068 16.6532 23.6106 16.6532H25.4362C25.9401 16.6532 26.349 17.0803 26.349 17.6065C26.349 18.1328 25.9401 18.5598 25.4362 18.5598Z" fill="white"/>
</svg>
