<svg width="30" height="30" viewBox="0 0 30 30" fill="none" xmlns="http://www.w3.org/2000/svg">
<path d="M6.73828 0.879173C6.73828 0.393782 6.34476 0.000267029 5.85937 0.000267029H4.10156C3.61617 0.000267029 3.22266 0.393782 3.22266 0.879173V5.00253L6.73828 2.19003V0.879173Z" fill="white"/>
<path d="M10.5469 14.6487H14.6484V22.8518H10.5469V14.6487Z" fill="white"/>
<path d="M12.5977 8.20338C13.0831 8.20338 13.4766 7.80988 13.4766 7.32448C13.4766 6.83907 13.0831 6.44557 12.5977 6.44557C12.1122 6.44557 11.7188 6.83907 11.7188 7.32448C11.7188 7.80988 12.1122 8.20338 12.5977 8.20338Z" fill="white"/>
<path d="M24.8654 9.56761L13.1467 0.192612C12.8257 -0.0642041 12.3696 -0.0642041 12.0486 0.192612L0.329891 9.56761C-0.0491519 9.87083 -0.110617 10.4239 0.192664 10.8029C0.495945 11.1819 1.04895 11.2435 1.428 10.9402L2.92969 9.73888V21.0938H2.05079C1.5654 21.0938 1.17188 21.4873 1.17188 21.9727C1.17188 22.4581 1.5654 22.8516 2.05079 22.8516H8.78907V13.7695C8.78907 13.2841 9.18258 12.8906 9.66797 12.8906H15.5273C16.0128 12.8906 16.4062 13.2841 16.4062 13.7695V22.8516H17.1485C17.5515 18.4664 21.0083 14.7122 22.2656 13.4805V9.73882L23.7674 10.9402C23.9294 11.0699 24.1233 11.1329 24.3158 11.1329C24.5736 11.1329 24.8292 11.02 25.0027 10.803C25.3059 10.4239 25.2445 9.87083 24.8654 9.56761ZM12.5977 9.96095C11.1438 9.96095 9.961 8.77812 9.961 7.32423C9.961 5.87034 11.1438 4.68751 12.5977 4.68751C14.0516 4.68751 15.2344 5.87034 15.2344 7.32423C15.2344 8.77812 14.0516 9.96095 12.5977 9.96095V9.96095Z" fill="white"/>
<path d="M24.4341 23.4128C23.7757 24.2432 22.9692 25.5381 22.9692 26.7186C22.9692 27.7437 23.4484 28.2421 24.4341 28.2421C25.4197 28.2421 25.8989 27.7437 25.8989 26.7186C25.8989 25.538 25.0924 24.2432 24.4341 23.4128Z" fill="white"/>
<path d="M26.9684 18.9189C25.9161 17.9535 25.3125 16.5465 25.3125 15.0586C25.3125 14.7114 25.1081 14.3967 24.7908 14.2556C24.4736 14.1144 24.1029 14.1734 23.845 14.4059C23.6418 14.5893 18.8672 18.9493 18.8672 23.6819C18.8672 27.4019 21.1562 30 24.4336 30C22.4759 30 21.2109 28.712 21.2109 26.7188C21.2109 24.0323 23.7139 21.564 23.8204 21.4602C24.1617 21.1279 24.7055 21.1279 25.0468 21.4602C25.1533 21.564 27.6562 24.0323 27.6562 26.7188C27.6562 28.7121 26.3913 30 24.4336 30C26.1136 30 27.5368 29.4207 28.5493 28.3245C29.4848 27.3116 30 25.8984 30 24.3452C30 22.1593 28.3513 20.1878 26.9684 18.9189Z" fill="white"/>
</svg>
