<svg width="30" height="30" viewBox="0 0 30 30" fill="none" xmlns="http://www.w3.org/2000/svg">
<path d="M0.275977 11.1916C0.0894141 11.4933 0 11.8164 0 12.1559C0 15.0411 6.71022 15.9286 9.57481 16.1709C10.4369 16.8258 12.0483 17.8027 13.1241 19.9441C13.1735 20.0424 13.2749 20.104 13.3851 20.104H17.3174C17.8224 20.104 18.2567 20.4912 18.2802 20.9943C18.3053 21.5313 17.8766 21.9741 17.3438 21.9741H12.2138C11.7088 21.9741 11.2746 22.3614 11.2511 22.8644C11.226 23.4014 11.6546 23.8443 12.1875 23.8443H14.0695C14.1352 25.3498 13.8036 27.2124 13.3377 28.3946C12.9647 28.845 13.0304 29.652 13.684 29.9281C13.9802 30.0524 14.3501 30.0191 14.6303 29.8001C15.2783 29.6031 16.7086 29.0853 18.14 28.0159C19.9154 26.6892 22.0312 24.2399 22.0312 20.104H23.4112C23.9162 20.104 24.3505 19.7168 24.3739 19.2136C24.399 18.6767 23.9704 18.2339 23.4375 18.2339H19.2451C18.7401 18.2339 18.3057 17.8466 18.2823 17.3435C18.2572 16.8065 18.6859 16.3637 19.2188 16.3637H21.2116C21.4055 16.3637 21.5463 16.1792 21.4938 15.9931C21.2603 15.164 21.0938 14.4308 21.0938 12.6234C21.0938 12.1828 21.1664 11.779 21.2971 11.3967C23.1125 11.2191 25.3324 10.902 27.0686 10.3705C28.3271 9.98479 30 9.31446 30 7.94809C30 6.83916 28.8758 6.18683 27.8051 5.77645C27.664 5.72239 27.5057 5.78592 27.4388 5.92104C27.2541 6.29337 27.0394 6.66897 26.8135 7.02489C26.7124 7.1842 26.7847 7.39506 26.9627 7.45841C27.5304 7.6605 27.8381 7.83623 27.9985 7.95101C27.6827 8.17426 26.918 8.52491 25.4585 8.86504C22.3848 9.58242 18.2025 9.81694 15.0269 9.81823C14.5212 9.81846 14.0865 9.43064 14.0636 8.92682C14.0391 8.39032 14.4676 7.94809 15.0001 7.94809C17.9058 7.94809 21.3933 7.75956 24.2634 7.23989C24.3341 7.22709 24.3976 7.1887 24.4417 7.13224C25.8814 5.29156 26.7178 3.39933 26.7188 0.939745C26.719 0.422944 26.2995 0 25.7813 0H4.21881C3.70102 0 3.28131 0.419086 3.28131 0.935537C3.28131 1.47472 3.28131 2.00146 3.28623 2.51645C3.28764 2.67658 3.41865 2.80521 3.5792 2.80521H14.0362C14.5412 2.80521 14.9754 3.19244 14.9989 3.69551C15.024 4.23253 14.5954 4.67535 14.0625 4.67535H1.43256C0.927598 4.67535 0.493301 5.06258 0.469805 5.56565C0.444727 6.10267 0.873398 6.54549 1.40625 6.54549H3.525C3.78398 8.39862 4.29709 10.0206 5.25943 11.6047C5.30057 11.6725 5.36771 11.7207 5.44512 11.7383C8.11559 12.3447 11.3229 12.5635 14.0355 12.565C14.5404 12.5653 14.9747 12.9511 14.9989 13.454C15.0247 13.9916 14.5958 14.4351 14.0625 14.4351C12.3797 14.4351 10.7379 14.358 9.1834 14.206C6.95344 13.9893 7.00055 13.8754 7.10039 13.9845C6.02918 13.8119 4.88596 13.5721 3.85195 13.2306C2.42871 12.7573 1.95586 12.3061 1.88086 12.1553C1.93535 12.0404 2.17734 11.8034 2.75496 11.5195C2.89723 11.4496 2.95781 11.2793 2.89184 11.1355C2.71559 10.751 2.5592 10.3636 2.42766 9.99285C2.36719 9.82238 2.16768 9.74804 2.00924 9.83588C1.52314 10.1053 0.602285 10.6639 0.275977 11.1916Z" fill="white"/>
</svg>
