<svg width="30" height="25" viewBox="0 0 30 25" fill="none" xmlns="http://www.w3.org/2000/svg">
<path d="M25.0654 16H7V17.7742H25.0654C25.7266 17.7742 26.2645 18.3241 26.2645 19C26.2645 19.6759 25.7266 20.2258 25.0654 20.2258H23.4876V22H25.0654C26.6835 22 28 20.6542 28 19.0001C28 17.3458 26.6835 16 25.0654 16Z" fill="white"/>
<path d="M19.2557 20H5V21.6423H19.2557C19.7749 21.6423 20.1972 22.0271 20.1972 22.5C20.1972 22.9729 19.7749 23.3577 19.2557 23.3577V25C20.769 25 22 23.8785 22 22.5C22.0001 21.1214 20.769 20 19.2557 20Z" fill="white"/>
<path d="M3 16H5V18H3V16Z" fill="white"/>
<path d="M27.4484 9V10.6423C27.9311 10.6423 28.3238 11.0271 28.3238 11.5C28.3238 11.9729 27.9311 12.3577 27.4484 12.3577H23.9908C23.4856 13.0602 22.7998 13.6294 22 14H27.4484C28.8553 14 30 12.8785 30 11.5001C30 10.1216 28.8553 9 27.4484 9Z" fill="white"/>
<path d="M19.4144 13C21.3915 13 23 11.3515 23 9.3252C23 7.29889 21.3915 5.6504 19.4144 5.6504C19.0292 5.6504 18.6482 5.71365 18.2821 5.83852L17.1677 6.21857L17.1212 5.01584C17.0123 2.20322 14.774 0 12.0254 0C10.313 0 8.74579 0.87194 7.808 2.28582C9.27158 2.97259 10.2741 4.49211 10.2741 6.21163H8.50822C8.50822 4.96405 7.60056 3.89705 6.39691 3.72967L6.39697 3.72925L6.39096 3.72834C6.27306 3.7111 6.15569 3.70236 6.04221 3.70236C4.70489 3.70236 3.61584 4.81283 3.60684 6.18131L3.6069 7.07182L2.7593 7.10655C1.21201 7.17004 0 8.46369 0 10.0516C0 11.6773 1.29055 13 2.87679 13H19.4144Z" fill="white"/>
</svg>
