<svg width="30" height="30" viewBox="0 0 30 30" fill="none" xmlns="http://www.w3.org/2000/svg">
<path d="M10.9997 13C10.9997 13.5521 10.5519 13.9997 9.99977 13.9997C9.44763 13.9997 9 13.5521 9 13C9 12.4476 9.44763 12 9.99977 12C10.5519 12 10.9997 12.4476 10.9997 13Z" fill="white"/>
<path d="M15.9997 16.9998C15.9997 17.5519 15.5521 17.9996 14.9999 17.9996C14.4478 17.9996 14 17.5519 14 16.9998C14 16.4476 14.4478 16 14.9999 16C15.5521 16 15.9997 16.4476 15.9997 16.9998Z" fill="white"/>
<path d="M17.9997 11.4998C17.9997 12.3282 17.3281 12.9997 16.4999 12.9997C15.6715 12.9997 15 12.3282 15 11.4998C15 10.6715 15.6715 10 16.4999 10C17.3281 10 17.9997 10.6715 17.9997 11.4998Z" fill="white"/>
<path d="M27.9982 13.0003C27.0866 12.9996 26.2902 13.617 26.0635 14.5001H24.4734C24.3608 12.1982 23.4523 10.0071 21.9032 8.30083L23.019 7.19103C23.4299 7.45773 23.9091 7.60009 24.3988 7.601C25.7777 7.59715 26.8923 6.47613 26.8884 5.09741C26.8846 3.71851 25.7638 2.60393 24.3849 2.60779C23.006 2.61146 21.8914 3.73247 21.8953 5.11137C21.8966 5.5985 22.0406 6.07479 22.3091 6.48109L21.1993 7.59696C19.4933 6.04779 17.302 5.13929 15.0003 5.02688V3.93654C16.0695 3.66028 16.7126 2.56958 16.4365 1.50037C16.1605 0.430967 15.0698 -0.212104 14.0004 0.0639703C12.931 0.340045 12.2879 1.43093 12.5642 2.50015C12.746 3.20457 13.296 3.7547 14.0004 3.93654V5.02688C11.6987 5.13929 9.50741 6.04779 7.8014 7.59696L6.69142 6.48109C7.45626 5.32849 7.14199 3.77417 5.98922 3.00932C4.83663 2.24446 3.28234 2.55893 2.5175 3.71153C1.75284 4.86414 2.06711 6.41864 3.2197 7.18331C3.62949 7.45516 4.11018 7.60045 4.60189 7.601C5.09158 7.60009 5.5708 7.45773 5.9815 7.19103L7.09735 8.30083C5.54839 10.0071 4.63991 12.1982 4.52731 14.5001H3.42708C3.15082 13.574 2.1764 13.047 1.25029 13.3233C0.324182 13.5993 -0.202794 14.5739 0.0734598 15.4999C0.34953 16.426 1.32413 16.953 2.25006 16.6769C2.81579 16.5081 3.25827 16.0656 3.42708 15.4999H4.52676C4.63936 17.8018 5.54784 19.9929 7.09699 21.6992L5.98169 22.809C4.83038 22.0471 3.2794 22.3628 2.51768 23.5141C1.86121 24.5062 1.99474 25.8234 2.8371 26.6635C3.80747 27.6395 5.38546 27.644 6.36153 26.6735C6.36484 26.6702 6.36815 26.6669 6.37145 26.6635C7.2105 25.8239 7.34422 24.5102 6.69142 23.5189L7.8014 22.403C9.50741 23.9522 11.6987 24.8607 14.0004 24.9731V26.0635C12.931 26.3397 12.2879 27.4304 12.5642 28.4996C12.8403 29.569 13.931 30.2121 15.0003 29.936C16.0695 29.66 16.7126 28.5693 16.4365 27.4999C16.2547 26.7954 15.7046 26.2453 15.0003 26.0635V24.9731C17.302 24.8607 19.4933 23.9522 21.1993 22.403L22.3091 23.5189C21.5494 24.6741 21.8699 26.2266 23.0251 26.9865C23.4331 27.2548 23.9106 27.3979 24.3988 27.3985C25.0617 27.3997 25.6974 27.1349 26.1636 26.6635C27.141 25.6886 27.1432 24.106 26.1684 23.1284C25.3283 22.2862 24.0111 22.1525 23.019 22.809L21.9032 21.6992C23.4523 19.9929 24.3608 17.8018 24.4734 15.5001H26.0635C26.3398 16.5693 27.4305 17.2124 28.4997 16.9363C29.569 16.6602 30.2121 15.5695 29.936 14.5001C29.7079 13.6166 28.9107 12.9996 27.9982 13.0003ZM16.5001 9.00085C17.8804 9.00085 18.9996 10.12 18.9996 11.5004C18.9996 12.8809 17.8804 14.0001 16.5001 14.0001C15.1195 14.0001 14.0004 12.8809 14.0004 11.5004C14.002 10.1206 15.1201 9.0025 16.5001 9.00085ZM9.46112 17.6896C9.43688 17.7507 9.40124 17.8068 9.35606 17.8545C9.26018 17.9458 9.13344 17.9976 9.00119 17.9996C8.9358 17.9987 8.87133 17.9851 8.81108 17.9596C8.75065 17.9342 8.69481 17.8988 8.64614 17.8545C8.60095 17.8068 8.56532 17.7507 8.54126 17.6896C8.51554 17.6295 8.50195 17.5648 8.50121 17.4996C8.50305 17.3672 8.55485 17.2405 8.64614 17.1446C8.69481 17.1005 8.75065 17.065 8.81108 17.0397C8.99751 16.9642 9.21095 17.0054 9.35606 17.1446C9.44735 17.2405 9.49914 17.3672 9.50098 17.4996C9.50025 17.565 9.48665 17.6295 9.46112 17.6896ZM11.9606 20.6893C11.9366 20.7504 11.9009 20.8065 11.8557 20.8542C11.7599 20.9455 11.6331 20.9973 11.5007 20.9992C11.4355 20.9984 11.3708 20.9848 11.3108 20.9591C11.2502 20.9338 11.1945 20.8983 11.1458 20.8542C11.1006 20.8063 11.065 20.7504 11.0408 20.6893C11.0152 20.629 11.0016 20.5646 11.0009 20.4992C11.0027 20.3669 11.0545 20.2402 11.1458 20.1443C11.1943 20.1002 11.2502 20.0648 11.3108 20.0392C11.4972 19.9639 11.7106 20.0049 11.8556 20.1443C11.9469 20.2402 11.9987 20.3669 12.0007 20.4992C11.9999 20.5646 11.9863 20.6292 11.9606 20.6893ZM10.001 15.0001C8.89649 15.0001 8.00124 14.1046 8.00124 13.0003C8.00124 11.8959 8.89668 11.0006 10.001 11.0006C11.1054 11.0006 12.0007 11.8959 12.0007 13.0003C12.0007 14.1046 11.1054 15.0001 10.001 15.0001ZM12.5006 17.4996C12.5006 16.3952 13.3959 15.4999 14.5004 15.4999C15.6046 15.4999 16.4999 16.3953 16.4999 17.4996C16.4999 18.6041 15.6046 19.4994 14.5004 19.4994C13.3959 19.4994 12.5006 18.6041 12.5006 17.4996ZM14.5004 22.9989C14.2243 22.9989 14.0004 22.7752 14.0004 22.4989C14.0004 22.2228 14.2243 21.9991 14.5004 21.9991C18.3641 21.9949 21.4951 18.8637 21.4993 14.9999C21.4993 14.7238 21.723 14.5001 21.9993 14.5001C22.2753 14.5001 22.4992 14.7238 22.4992 14.9999C22.4939 19.4154 18.9158 22.9938 14.5004 22.9989Z" fill="white"/>
</svg>
