<svg width="26" height="30" viewBox="0 0 26 30" fill="none" xmlns="http://www.w3.org/2000/svg">
<path d="M24.3655 4.67397C24.3655 4.34397 24.0955 4.07397 23.7655 4.07397C22.1875 4.07397 20.8015 4.89597 20.0035 6.13197H5.53754C5.47754 6.98997 5.47754 7.89598 5.47754 8.81998V9.17997C5.47754 9.68397 5.51954 10.176 5.58554 10.656H10.1695C10.5055 10.656 10.8115 10.476 10.9435 10.2L10.9795 10.122C11.3275 9.40798 12.1135 8.95197 12.9715 8.95197C13.8295 8.95197 14.6155 9.41398 14.9695 10.122L15.0115 10.2C15.1495 10.476 15.4495 10.656 15.7915 10.656H19.8115C20.5675 12.072 22.0555 13.044 23.7715 13.044C24.1015 13.044 24.3715 12.774 24.3715 12.444C24.3715 10.782 23.4655 9.32998 22.1215 8.55597C23.4595 7.78797 24.3655 6.33597 24.3655 4.67397Z" fill="white"/>
<path d="M18.8279 1.758C17.6459 0.576 15.7319 0 12.9779 0C10.2239 0 8.31592 0.576 7.13392 1.758C6.28792 2.604 5.87392 3.696 5.66992 4.932H20.2859C20.0879 3.696 19.6739 2.604 18.8279 1.758Z" fill="white"/>
<path d="M0 29.3999C0 29.7359 0.27 29.9999 0.6 29.9999H5.478V26.2499C5.478 25.9139 5.742 25.6499 6.078 25.6499C6.408 25.6499 6.678 25.9139 6.678 26.2499V29.9999H19.284V26.2499C19.284 25.9139 19.554 25.6499 19.884 25.6499C20.214 25.6499 20.484 25.9139 20.484 26.2499V29.9999H25.356C25.686 29.9999 25.956 29.7359 25.956 29.3999C25.956 28.0439 25.8 26.1179 25.128 24.1739C24.45 22.2299 23.256 20.2619 21.174 18.8159C20.274 18.1919 19.266 17.7479 18.198 17.4719C16.722 18.7919 14.898 19.5659 12.978 19.5659C11.058 19.5659 9.24 18.7919 7.764 17.4719C6.69 17.7479 5.688 18.1919 4.788 18.8219C0.624 21.7139 0 26.6939 0 29.3999Z" fill="white"/>
<path d="M13.7942 10.68L13.7582 10.602C13.6202 10.326 13.3142 10.146 12.9782 10.146C12.6422 10.146 12.3362 10.326 12.2042 10.602L12.1622 10.68C11.8142 11.394 11.0342 11.856 10.1702 11.856H5.80225C6.74425 15.618 9.60625 18.366 12.9782 18.366C16.3562 18.366 19.2182 15.618 20.1602 11.856H15.7922C14.9282 11.856 14.1422 11.394 13.7942 10.68Z" fill="white"/>
</svg>
