<svg width="30" height="30" viewBox="0 0 30 30" fill="none" xmlns="http://www.w3.org/2000/svg">
<path d="M18.5294 4.85294C18.5294 2.17259 20.7018 0 23.3824 0C26.0627 0 28.2353 2.1724 28.2353 4.85294C28.2353 7.5333 26.0629 9.70588 23.3824 9.70588C20.702 9.70588 18.5294 7.53348 18.5294 4.85294ZM24.8516 2.13583C24.4147 1.89911 23.9142 1.76471 23.3824 1.76471C21.6765 1.76471 20.2941 3.14717 20.2941 4.85294C20.2941 5.38485 20.4285 5.88531 20.6652 6.32221L24.8516 2.13583ZM26.0995 3.38367L21.9131 7.57005C22.35 7.80677 22.8505 7.94118 23.3824 7.94118C25.0882 7.94118 26.4706 6.55871 26.4706 4.85294C26.4706 4.32103 26.3362 3.82057 26.0995 3.38367ZM18.5294 28.2353H19.8529V12.3529C19.8529 11.8656 20.248 11.4706 20.7353 11.4706H26.0294C26.5167 11.4706 26.9118 11.8656 26.9118 12.3529V28.2353H29.1176C29.605 28.2353 30 28.6303 30 29.1176C30 29.605 29.605 30 29.1176 30H0.882353C0.395043 30 0 29.605 0 29.1176C0 28.6303 0.395043 28.2353 0.882353 28.2353H3.08824V22.0588C3.08824 21.5715 3.48328 21.1765 3.97059 21.1765H9.26471C9.75202 21.1765 10.1471 21.5715 10.1471 22.0588V28.2353H11.4706V18.0882C11.4706 17.6009 11.8656 17.2059 12.3529 17.2059H17.6471C18.1344 17.2059 18.5294 17.6009 18.5294 18.0882V28.2353Z" fill="white"/>
</svg>
