<svg width="30" height="18" viewBox="0 0 30 18" fill="none" xmlns="http://www.w3.org/2000/svg">
<path d="M25 7.75C24.775 7.75 24.55 7.7875 24.3375 7.8125L21.7625 5.25H25V1.5L20.35 3.825L16.7625 0.25H11.25V2.75H15.7375L18.2375 5.25H13.75L8.75 7.75L6.25 5.25H0V7.75H5C2.2375 7.75 0 9.9875 0 12.75C0 15.5125 2.2375 17.75 5 17.75C7.7625 17.75 10 15.5125 10 12.75L12.5 15.25H16.25L20.6125 7.625L21.875 8.8875C20.7375 9.8 20 11.1875 20 12.75C20 15.5125 22.2375 17.75 25 17.75C27.7625 17.75 30 15.5125 30 12.75C30 9.9875 27.7625 7.75 25 7.75ZM5 15.25C3.625 15.25 2.5 14.125 2.5 12.75C2.5 11.375 3.625 10.25 5 10.25C6.375 10.25 7.5 11.375 7.5 12.75C7.5 14.125 6.375 15.25 5 15.25ZM25 15.25C23.625 15.25 22.5 14.125 22.5 12.75C22.5 11.375 23.625 10.25 25 10.25C26.375 10.25 27.5 11.375 27.5 12.75C27.5 14.125 26.375 15.25 25 15.25Z" fill="white"/>
</svg>
