<svg width="30" height="30" viewBox="0 0 30 30" fill="none" xmlns="http://www.w3.org/2000/svg">
<path d="M12.9492 14.6484V18.3664C13.4765 18.1535 14.1444 17.9883 14.9954 17.9883C15.8514 17.9883 16.5221 18.1556 17.0508 18.3704V14.6484H12.9492Z" fill="white"/>
<path d="M11.1599 19.0144C11.1702 19.0213 11.1807 19.0283 11.1914 19.0354V13.7695C11.1914 13.2841 11.585 12.8906 12.0704 12.8906H17.9297C18.4151 12.8906 18.8086 13.2841 18.8086 13.7695V19.0287C18.816 19.0238 18.8233 19.0189 18.8305 19.0142C19.4087 18.6304 20.3762 17.9883 22.0543 17.9883C23.2453 17.9883 24.078 18.3114 24.668 18.6362V9.73876L26.1698 10.9402C26.3318 11.0698 26.5257 11.1328 26.7182 11.1328C26.976 11.1328 27.2315 11.0199 27.4051 10.8029C27.7083 10.4239 27.6469 9.87078 27.2678 9.56761L15.5491 0.192612C15.228 -0.0642041 14.772 -0.0642041 14.451 0.192612L2.73226 9.56761C2.35316 9.87083 2.29176 10.4239 2.59498 10.8029C2.8982 11.1819 3.45133 11.2435 3.83031 10.9402L5.33207 9.73876V18.6321C5.9214 18.3086 6.75162 17.9882 7.93668 17.9882C9.61469 17.9882 10.582 18.6306 11.1599 19.0144ZM15 4.68746C16.4539 4.68746 17.6368 5.87029 17.6368 7.32417C17.6368 8.77806 16.4539 9.96089 15 9.96089C13.5462 9.96089 12.3633 8.77806 12.3633 7.32417C12.3633 5.87029 13.5462 4.68746 15 4.68746Z" fill="white"/>
<path d="M29.1211 19.7461C27.9728 19.7461 27.3605 20.1522 26.8686 20.4785C26.4696 20.7431 26.2061 20.918 25.5877 20.918C24.9694 20.918 24.7058 20.7431 24.3069 20.4785C23.8149 20.1522 23.2027 19.7461 22.0543 19.7461C20.9064 19.7461 20.2945 20.1523 19.8028 20.4786C19.4043 20.7432 19.1409 20.918 18.5234 20.918C17.9068 20.918 17.6438 20.7433 17.2458 20.4789C16.7542 20.1524 16.1427 19.7461 14.9954 19.7461C13.8477 19.7461 13.2359 20.1523 12.7443 20.4787C12.3459 20.7432 12.0828 20.918 11.4656 20.918C10.8486 20.918 10.5855 20.7432 10.1874 20.4788C9.69586 20.1524 9.08414 19.7461 7.93664 19.7461C6.78914 19.7461 6.17748 20.1524 5.68594 20.4788C5.28773 20.7432 5.02471 20.918 4.40777 20.918C3.7909 20.918 3.52781 20.7432 3.12967 20.4788C2.63807 20.1524 2.02641 19.7461 0.878906 19.7461C0.393516 19.7461 0 20.1396 0 20.625V23.4082H0.878906C2.02641 23.4082 2.63807 23.8145 3.12961 24.1409C3.52781 24.4054 3.79084 24.5801 4.40771 24.5801C5.02465 24.5801 5.28773 24.4054 5.68588 24.1409C6.17742 23.8145 6.78908 23.4082 7.93658 23.4082C9.08408 23.4082 9.69574 23.8145 10.1873 24.1409C10.5855 24.4054 10.8485 24.5801 11.4655 24.5801C12.0827 24.5801 12.3458 24.4054 12.7442 24.1409C13.2358 23.8144 13.8476 23.4082 14.9953 23.4082C16.1426 23.4082 16.7542 23.8145 17.2456 24.141C17.6436 24.4054 17.9065 24.5801 18.5232 24.5801C19.1408 24.5801 19.4041 24.4054 19.8026 24.1407C20.2944 23.8144 20.9062 23.4082 22.0542 23.4082C23.2025 23.4082 23.8148 23.8143 24.3067 24.1406C24.7057 24.4052 24.9693 24.5801 25.5875 24.5801C26.2059 24.5801 26.4695 24.4052 26.8685 24.1406C27.3604 23.8143 27.9727 23.4082 29.1209 23.4082H29.9998V20.625C30 20.1396 29.6065 19.7461 29.1211 19.7461Z" fill="white"/>
<path d="M29.1211 25.166C28.5028 25.166 28.2392 25.3409 27.8402 25.6055C27.3483 25.9318 26.736 26.3379 25.5877 26.3379C24.4394 26.3379 23.8272 25.9318 23.3353 25.6055C22.9362 25.3409 22.6727 25.166 22.0543 25.166C21.4368 25.166 21.1735 25.3407 20.7749 25.6054C20.2832 25.9317 19.6713 26.3379 18.5234 26.3379C17.3761 26.3379 16.7645 25.9316 16.2731 25.6051C15.875 25.3407 15.6121 25.166 14.9954 25.166C14.3782 25.166 14.1151 25.3407 13.7167 25.6052C13.2251 25.9317 12.6133 26.3379 11.4656 26.3379C10.3181 26.3379 9.70647 25.9316 9.21492 25.6052C8.81672 25.3407 8.55369 25.166 7.93676 25.166C7.31982 25.166 7.05674 25.3407 6.65859 25.6052C6.16705 25.9316 5.55539 26.3379 4.40789 26.3379C3.26045 26.3379 2.64879 25.9316 2.15725 25.6052C1.75893 25.3407 1.49584 25.166 0.878906 25.166H0V27.9492C0 28.4346 0.393516 28.8281 0.878906 28.8281C1.49584 28.8281 1.75893 29.0029 2.15707 29.2673C2.64861 29.5937 3.26033 30 4.40777 30C5.55527 30 6.16693 29.5937 6.65848 29.2673C7.05668 29.0029 7.31971 28.8281 7.93664 28.8281C8.55357 28.8281 8.81666 29.0029 9.21481 29.2673C9.70635 29.5937 10.318 30 11.4655 30C12.6132 30 13.225 29.5938 13.7166 29.2673C14.1149 29.0029 14.3781 28.8281 14.9953 28.8281C15.612 28.8281 15.8749 29.0028 16.273 29.2672C16.7644 29.5937 17.376 30 18.5232 30C19.6712 30 20.283 29.5938 20.7748 29.2675C21.1734 29.0029 21.4366 28.8281 22.0542 28.8281C22.6726 28.8281 22.9362 29.003 23.3351 29.2676C23.8271 29.5939 24.4393 30 25.5876 30C26.7359 30 27.3482 29.5939 27.8401 29.2676C28.2391 29.003 28.5027 28.8281 29.121 28.8281C29.6064 28.8281 29.9999 28.4346 29.9999 27.9492V25.166H29.1211Z" fill="white"/>
</svg>
