<svg width="30" height="30" viewBox="0 0 30 30" fill="none" xmlns="http://www.w3.org/2000/svg">
<path d="M3.73731 12.3033C4.12797 11.9126 4.37539 11.3657 4.37539 10.7537C4.37539 10.5323 4.31028 10.2849 4.20611 10.0244C4.08891 9.75096 3.93264 9.47749 3.75034 9.19101C3.75034 9.17799 3.73731 9.17799 3.73731 9.16497C3.35968 8.592 2.86484 8.03205 2.44814 7.55024L2.1877 7.25073L1.92726 7.55024C1.11989 8.48782 0 9.777 0 10.7537C0 11.3527 0.247418 11.8996 0.638078 12.3033C1.02874 12.6939 1.57566 12.9413 2.1877 12.9413C2.78671 12.9413 3.33363 12.6939 3.73731 12.3033Z" fill="white"/>
<path d="M9.58426 6.07813L9.51915 6L9.45404 6.07813C8.97223 6.63808 8.30811 7.40638 8.30811 7.9533C8.30811 8.29187 8.43833 8.59138 8.6597 8.81275C8.88107 9.03413 9.18058 9.16435 9.51915 9.16435C9.85772 9.16435 10.1572 9.03413 10.3786 8.81275C10.6 8.59138 10.7302 8.29187 10.7302 7.9533C10.7302 7.40638 10.0661 6.63808 9.58426 6.07813Z" fill="white"/>
<path d="M5.40417 7.88818C5.20884 8.12258 4.98747 8.37 4.7661 8.64346L4.42752 9.03412C4.58379 9.28154 4.71401 9.52896 4.81818 9.77637C4.96143 10.1149 5.03956 10.4405 5.03956 10.753C5.03956 11.5343 4.72703 12.2506 4.20615 12.7714C3.68527 13.2923 2.98208 13.6048 2.18774 13.6048C2.00543 13.6048 1.83614 13.5918 1.66686 13.5528C1.60175 13.5397 1.54966 13.5267 1.48455 13.5137C1.45851 13.6179 1.43246 13.722 1.40642 13.8262C1.36735 14.0215 1.34131 14.2039 1.34131 14.3992C1.34131 15.5191 1.79708 16.5348 2.52631 17.277C3.26856 18.0193 4.28428 18.4621 5.40417 18.4621C6.52407 18.4621 7.53978 18.0063 8.28204 17.277C9.02429 16.5478 9.46704 15.5191 9.46704 14.3992C9.46704 12.6152 7.47467 10.3233 6.04225 8.65648C5.82088 8.37 5.61253 8.12258 5.40417 7.88818Z" fill="white"/>
<path d="M29.7238 27.1277L26.9626 24.2505V15.1615C26.9626 14.6174 26.5393 14.1763 26.0171 14.1763H20.9536C20.4315 14.1763 20.0082 14.6174 20.0082 15.1615V17.004L16.5587 13.4096C16.1895 13.0249 15.5908 13.0249 15.2216 13.4096L2.05652 27.1277C1.46346 27.7415 1.88955 28.8125 2.72502 28.8094H6.01234L15.2215 19.2134C15.5907 18.8287 16.1894 18.8287 16.5586 19.2134L25.7678 28.8094H29.0551C29.8911 28.8124 30.3166 27.7412 29.7238 27.1277Z" fill="white"/>
<path d="M8.68652 28.8102H23.0938L15.8901 21.304L8.68652 28.8102Z" fill="white"/>
</svg>
