<svg width="30" height="28" viewBox="0 0 30 28" fill="none" xmlns="http://www.w3.org/2000/svg">
<path d="M3.33333 0H1.66667C0.747667 0 0 0.814054 0 1.81465V12.1853C0 13.1859 0.747667 14 1.66667 14H3.33333C4.25233 14 5 13.1859 5 12.1853V1.81465C5 0.814054 4.25233 0 3.33333 0Z" fill="white"/>
<path d="M28.3333 0H26.6667C25.7477 0 25 0.814054 25 1.81465V12.1853C25 13.1859 25.7477 14 26.6667 14H28.3333C29.2523 14 30 13.1859 30 12.1853V1.81465C30 0.814054 29.2523 0 28.3333 0Z" fill="white"/>
<path d="M7 12H13.6481C13.6629 11.957 13.6803 11.9144 13.7028 11.8729L15 9.47546L13.0105 7.02416C12.7603 6.71597 12.7603 6.28403 13.0105 5.97584L15 3.5246L13.7028 1.1272C13.6804 1.08569 13.6629 1.04305 13.6481 1H7C7.03934 1.20294 7.0609 1.4118 7.0609 1.62549V11.3746C7.0609 11.5883 7.03934 11.7971 7 12Z" fill="white"/>
<path d="M22.9999 1H15.7608L16.907 3.22403C17.0596 3.51995 17.0269 3.87824 16.8236 4.14129L15 6.50003L16.8236 8.85882C17.0269 9.12187 17.0596 9.48022 16.907 9.77608L15.7608 12H23C22.9625 11.7971 22.942 11.5883 22.942 11.3745V1.62549C22.9419 1.41175 22.9625 1.20294 22.9999 1Z" fill="white"/>
<path d="M17.5141 16.1604C16.7893 15.2494 16.4638 15 16 15C15.5362 15 15.2107 15.2494 14.4859 16.1604C14.0265 16.7378 13.5148 17.4602 13.0451 18.1946C12.1121 19.6531 11 21.6886 11 23.1022C11 25.8029 13.243 28 16 28C18.757 28 21 25.8029 21 23.1022C21 21.6886 19.8879 19.6531 18.9549 18.1946C18.4852 17.4602 17.9735 16.7378 17.5141 16.1604Z" fill="white"/>
</svg>
