<svg width="37" height="37" viewBox="0 0 37 37" fill="none" xmlns="http://www.w3.org/2000/svg">
<path d="M11.423 6.9811L21.0027 9.68515C21.0767 9.70678 21.1417 9.75151 21.1884 9.81278C21.2351 9.87406 21.261 9.94867 21.2622 10.0257V11.6919H29.6946V8.67569C29.6953 8.21093 29.5336 7.76054 29.2375 7.40229C28.9414 7.04405 28.5296 6.80044 28.073 6.71353L12.1081 3.81083C11.8778 3.76897 11.6402 3.81893 11.4463 3.95C11.2523 4.08108 11.1174 4.28286 11.0703 4.51218L10.7824 5.91894C10.7326 6.14435 10.7713 6.38029 10.8905 6.57798C11.0097 6.77567 11.2004 6.91999 11.423 6.9811Z" fill="white"/>
<path d="M33.0311 30.1622L31.0041 25.1311C30.937 24.9615 30.8202 24.8161 30.669 24.7141C30.5177 24.612 30.3392 24.5581 30.1568 24.5595H20.9865C20.8041 24.5581 20.6256 24.612 20.4743 24.7141C20.3231 24.8161 20.2063 24.9615 20.1392 25.1311L18.1162 30.1622C18.0606 30.3004 18.0397 30.4501 18.0553 30.5983C18.0709 30.7464 18.1226 30.8885 18.2058 31.0121C18.2889 31.1357 18.4011 31.237 18.5325 31.3072C18.6639 31.3774 18.8105 31.4144 18.9595 31.4149H32.1879C32.3368 31.4144 32.4834 31.3774 32.6148 31.3072C32.7462 31.237 32.8584 31.1357 32.9416 31.0121C33.0248 30.8885 33.0764 30.7464 33.092 30.5983C33.1077 30.4501 33.0867 30.3004 33.0311 30.1622Z" fill="white"/>
<path d="M12.9188 28.4757C12.6715 28.8608 11.8647 30.1743 11.8647 30.7946C11.884 31.152 12.0396 31.4884 12.2994 31.7346C12.5592 31.9808 12.9035 32.118 13.2614 32.118C13.6193 32.118 13.9636 31.9808 14.2234 31.7346C14.4832 31.4884 14.6387 31.152 14.658 30.7946C14.658 30.1743 13.8472 28.8608 13.6039 28.4757C13.5674 28.4179 13.5168 28.3703 13.4569 28.3373C13.397 28.3044 13.3297 28.2871 13.2614 28.2871C13.193 28.2871 13.1257 28.3044 13.0658 28.3373C13.0059 28.3703 12.9554 28.4179 12.9188 28.4757Z" fill="white"/>
<path d="M9.41602 24.8149C9.16872 25.2 8.35791 26.5135 8.35791 27.1338C8.37717 27.4912 8.53271 27.8276 8.79252 28.0738C9.05232 28.32 9.39662 28.4572 9.75453 28.4572C10.1124 28.4572 10.4567 28.32 10.7165 28.0738C10.9763 27.8276 11.1319 27.4912 11.1512 27.1338C11.1512 26.5135 10.3403 25.2 10.0971 24.8149C10.0603 24.758 10.0099 24.7112 9.95044 24.6788C9.89095 24.6464 9.82429 24.6295 9.75656 24.6295C9.68882 24.6295 9.62217 24.6464 9.56268 24.6788C9.50319 24.7112 9.45277 24.758 9.41602 24.8149Z" fill="white"/>
<path d="M6.29855 28.2852C6.23072 28.2853 6.164 28.3024 6.1045 28.335C6.04501 28.3676 5.99464 28.4146 5.95801 28.4716C5.70666 28.877 4.8999 30.1743 4.8999 30.7946C4.91916 31.152 5.07471 31.4884 5.33451 31.7346C5.59432 31.9808 5.93861 32.118 6.29652 32.118C6.65444 32.118 6.99873 31.9808 7.25854 31.7346C7.51834 31.4884 7.67388 31.152 7.69315 30.7946C7.69315 30.1743 6.88233 28.8608 6.63909 28.4757C6.60294 28.4179 6.55278 28.3701 6.49325 28.3368C6.43373 28.3035 6.36676 28.2857 6.29855 28.2852Z" fill="white"/>
<path d="M7.12953 21.0041H12.1768C12.2843 21.0041 12.3875 20.9614 12.4635 20.8854C12.5395 20.8093 12.5822 20.7062 12.5822 20.5987V19.8284L21.2863 22.4595V23.7568H29.6944V12.5027H21.262V15.4825C21.262 15.5706 21.2269 15.6552 21.1646 15.7175C21.1022 15.7799 21.0177 15.8149 20.9295 15.8149H8.39439C7.95174 15.816 7.52752 15.9923 7.21451 16.3053C6.90151 16.6183 6.72519 17.0425 6.72412 17.4852V20.5987C6.72412 20.7062 6.76683 20.8093 6.84286 20.8854C6.91889 20.9614 7.02201 21.0041 7.12953 21.0041Z" fill="white"/>
<path d="M7.85547 22.573C7.85547 22.6805 7.89818 22.7836 7.97421 22.8597C8.05024 22.9357 8.15335 22.9784 8.26087 22.9784H11.2528C11.3603 22.9784 11.4634 22.9357 11.5394 22.8597C11.6155 22.7836 11.6582 22.6805 11.6582 22.573V21.8149H7.85547V22.573Z" fill="white"/>
</svg>
