<svg width="30" height="30" viewBox="0 0 30 30" fill="none" xmlns="http://www.w3.org/2000/svg">
<path d="M7.42299 3.9811L17.0027 6.68515C17.0767 6.70678 17.1417 6.75151 17.1884 6.81278C17.2351 6.87406 17.261 6.94867 17.2622 7.02569V8.69191H25.6946V5.67569C25.6953 5.21093 25.5336 4.76054 25.2375 4.40229C24.9414 4.04405 24.5296 3.80044 24.073 3.71353L8.10813 0.810827C7.8778 0.768971 7.64024 0.818926 7.44628 0.950002C7.25232 1.08108 7.11736 1.28286 7.07029 1.51218L6.78245 2.91894C6.73262 3.14435 6.77131 3.38029 6.89053 3.57798C7.00975 3.77567 7.20037 3.91999 7.42299 3.9811V3.9811Z" fill="white"/>
<path d="M29.0311 27.1622L27.0041 22.1311C26.937 21.9615 26.8202 21.8161 26.669 21.7141C26.5177 21.612 26.3392 21.5581 26.1568 21.5595H16.9865C16.8041 21.5581 16.6256 21.612 16.4743 21.7141C16.3231 21.8161 16.2063 21.9615 16.1392 22.1311L14.1162 27.1622C14.0606 27.3004 14.0397 27.4501 14.0553 27.5983C14.0709 27.7464 14.1226 27.8885 14.2058 28.0121C14.2889 28.1357 14.4011 28.237 14.5325 28.3072C14.6639 28.3774 14.8105 28.4144 14.9595 28.4149H28.1879C28.3368 28.4144 28.4834 28.3774 28.6148 28.3072C28.7462 28.237 28.8584 28.1357 28.9416 28.0121C29.0248 27.8885 29.0764 27.7464 29.092 27.5983C29.1077 27.4501 29.0867 27.3004 29.0311 27.1622V27.1622Z" fill="white"/>
<path d="M8.9188 25.4757C8.6715 25.8608 7.86475 27.1743 7.86475 27.7946C7.88401 28.152 8.03955 28.4884 8.29935 28.7346C8.55916 28.9808 8.90345 29.118 9.26137 29.118C9.61928 29.118 9.96358 28.9808 10.2234 28.7346C10.4832 28.4884 10.6387 28.152 10.658 27.7946C10.658 27.1743 9.84718 25.8608 9.60394 25.4757C9.56737 25.4179 9.51679 25.3703 9.4569 25.3373C9.397 25.3044 9.32974 25.2871 9.26137 25.2871C9.193 25.2871 9.12573 25.3044 9.06584 25.3373C9.00594 25.3703 8.95536 25.4179 8.9188 25.4757V25.4757Z" fill="white"/>
<path d="M5.41602 21.8149C5.16872 22.2 4.35791 23.5135 4.35791 24.1338C4.37717 24.4912 4.53271 24.8276 4.79252 25.0738C5.05232 25.32 5.39662 25.4572 5.75453 25.4572C6.11245 25.4572 6.45674 25.32 6.71654 25.0738C6.97635 24.8276 7.13189 24.4912 7.15115 24.1338C7.15115 23.5135 6.34034 22.2 6.0971 21.8149C6.06035 21.758 6.00992 21.7112 5.95044 21.6788C5.89095 21.6464 5.82429 21.6295 5.75656 21.6295C5.68882 21.6295 5.62217 21.6464 5.56268 21.6788C5.50319 21.7112 5.45277 21.758 5.41602 21.8149V21.8149Z" fill="white"/>
<path d="M2.29855 25.2852C2.23072 25.2853 2.164 25.3024 2.1045 25.335C2.04501 25.3676 1.99464 25.4146 1.95801 25.4716C1.70666 25.877 0.899902 27.1743 0.899902 27.7946C0.919165 28.152 1.07471 28.4884 1.33451 28.7346C1.59432 28.9808 1.93861 29.118 2.29652 29.118C2.65444 29.118 2.99873 28.9808 3.25854 28.7346C3.51834 28.4884 3.67388 28.152 3.69315 27.7946C3.69315 27.1743 2.88233 25.8608 2.63909 25.4757C2.60294 25.4179 2.55278 25.3701 2.49325 25.3368C2.43373 25.3035 2.36676 25.2857 2.29855 25.2852V25.2852Z" fill="white"/>
<path d="M3.12953 18.0041H8.17682C8.28434 18.0041 8.38746 17.9614 8.46349 17.8854C8.53952 17.8093 8.58223 17.7062 8.58223 17.5987V16.8284L17.2863 19.4595V20.7568H25.6944V9.50275H17.262V12.4825C17.262 12.5706 17.2269 12.6552 17.1646 12.7175C17.1022 12.7799 17.0177 12.8149 16.9295 12.8149H4.39439C3.95174 12.816 3.52752 12.9923 3.21451 13.3053C2.90151 13.6183 2.72519 14.0425 2.72412 14.4852V17.5987C2.72412 17.7062 2.76683 17.8093 2.84286 17.8854C2.91889 17.9614 3.02201 18.0041 3.12953 18.0041V18.0041Z" fill="white"/>
<path d="M3.85547 19.573C3.85547 19.6805 3.89818 19.7836 3.97421 19.8597C4.05024 19.9357 4.15335 19.9784 4.26087 19.9784H7.25277C7.36029 19.9784 7.4634 19.9357 7.53943 19.8597C7.61546 19.7836 7.65817 19.6805 7.65817 19.573V18.8149H3.85547V19.573Z" fill="white"/>
</svg>
