<svg width="30" height="26" viewBox="0 0 30 26" fill="none" xmlns="http://www.w3.org/2000/svg">
<path d="M27.3633 0.695312H2.63672C1.18277 0.695312 0 1.87809 0 3.33203V12.1211C0 13.575 1.18277 14.7578 2.63672 14.7578H27.3633C28.8172 14.7578 30 13.575 30 12.1211V3.33203C30 1.87809 28.8172 0.695312 27.3633 0.695312ZM22.0898 5.96875C22.5752 5.96875 22.9688 6.36227 22.9688 6.84766C22.9688 7.33305 22.5752 7.72656 22.0898 7.72656C21.6045 7.72656 21.2109 7.33305 21.2109 6.84766C21.2109 6.36227 21.6045 5.96875 22.0898 5.96875ZM25.6055 11.2422H4.39453C3.90873 11.2422 3.51562 10.8491 3.51562 10.3633C3.51562 9.87748 3.90873 9.48438 4.39453 9.48438H25.6055C26.0913 9.48438 26.4844 9.87748 26.4844 10.3633C26.4844 10.8491 26.0913 11.2422 25.6055 11.2422ZM25.6055 7.72656C25.1201 7.72656 24.7266 7.33305 24.7266 6.84766C24.7266 6.36227 25.1201 5.96875 25.6055 5.96875C26.0909 5.96875 26.4844 6.36227 26.4844 6.84766C26.4844 7.33305 26.0909 7.72656 25.6055 7.72656Z" fill="white"/>
<path d="M7.96859 16.5156C7.48279 16.5156 7.08969 16.9087 7.08969 17.3945V18.7378C7.08969 20.8269 5.92842 22.7049 4.05986 23.6396C3.62556 23.8567 3.44961 24.3846 3.66676 24.8189C3.88285 25.2498 4.40738 25.4298 4.84607 25.212C7.31457 23.9778 8.8475 21.4973 8.8475 18.7378V17.3945C8.8475 16.9087 8.45439 16.5156 7.96859 16.5156Z" fill="white"/>
<path d="M22.0312 16.5156C21.5454 16.5156 21.1523 16.9087 21.1523 17.3945V18.7378C21.1523 21.4973 22.6853 23.9778 25.1538 25.212C25.592 25.4296 26.1168 25.2502 26.3331 24.8189C26.5502 24.3846 26.3743 23.8567 25.94 23.6396C24.0714 22.7049 22.9102 20.8269 22.9102 18.7378V17.3945C22.9102 16.9087 22.5171 16.5156 22.0312 16.5156Z" fill="white"/>
<path d="M15.8789 24.4258V17.3945C15.8789 16.9087 15.4858 16.5156 15 16.5156C14.5142 16.5156 14.1211 16.9087 14.1211 17.3945V24.4258C14.1211 24.9116 14.5142 25.3047 15 25.3047C15.4858 25.3047 15.8789 24.9116 15.8789 24.4258Z" fill="white"/>
<path d="M19.3945 24.4258V17.3945C19.3945 16.9087 19.0014 16.5156 18.5156 16.5156C18.0298 16.5156 17.6367 16.9087 17.6367 17.3945V24.4258C17.6367 24.9116 18.0298 25.3047 18.5156 25.3047C19.0014 25.3047 19.3945 24.9116 19.3945 24.4258Z" fill="white"/>
<path d="M12.3633 24.4258V17.3945C12.3633 16.9087 11.9702 16.5156 11.4844 16.5156C10.9986 16.5156 10.6055 16.9087 10.6055 17.3945V24.4258C10.6055 24.9116 10.9986 25.3047 11.4844 25.3047C11.9702 25.3047 12.3633 24.9116 12.3633 24.4258Z" fill="white"/>
</svg>
